<svg xmlns="http://www.w3.org/2000/svg" xmlns:xlink="http://www.w3.org/1999/xlink" width="32.5" height="26" viewBox="0 0 32.5 26" fill="none"><g opacity="1"  transform="translate(4 4)  rotate(0)"><path  id="路径 1" style="fill:#337EFF; opacity:1;" d="M28.5 0C28.5 0.961351 28.1609 1.84349 27.5957 2.53331L13.1375 20.4815C12.4048 21.4065 11.2717 22 10 22C7.79086 22 6 20.2091 6 18C6 17.0386 6.33916 16.1564 6.90437 15.4666L21.3625 -2.4814C22.0951 -3.40651 23.2283 -4 24.5 -4C26.7091 -4 28.5 -2.20914 28.5 0Z"></path><path  id="路径 1" style="fill:#337EFF; opacity:1;" d="M-2.74857 11.4061L7.23944 20.8947L7.245 20.9C7.96233 21.5817 8.93231 22 10 22C12.2091 22 14 20.2091 14 18C14 16.8586 13.5219 15.8288 12.755 15.1L12.7485 15.0938L2.76049 5.60522C2.04263 4.92045 1.07041 4.5 0 4.5C-2.20914 4.5 -4 6.29086 -4 8.5C-4 9.64464 -3.51922 10.677 -2.74857 11.4061Z"></path></g></svg>