<svg width="245.000000" height="94.000000" viewBox="0 0 245 94" fill="none" xmlns="http://www.w3.org/2000/svg" xmlns:xlink="http://www.w3.org/1999/xlink">
	<defs>
		<clipPath id="clip8_6">
			<rect id="corenext-logo" width="214.275818" height="36.246094" transform="translate(17.000000 15.000000)" fill="white" fill-opacity="0"/>
		</clipPath>
	</defs>
	<rect id="矩形 4" width="245.000000" height="94.000000" fill="#FFFFFF" fill-opacity="1.000000"/>
	<g clip-path="url(#clip8_6)">
		<path id="CoreNext" d="M35.91 15C37.25 15 39.17 15.03 41.67 15.1L44.64 15.15L43.92 20.47L41.14 20.37C37.94 20.31 35.94 20.28 35.14 20.28L33.03 20.28C30.12 20.28 27.95 21.02 26.52 22.5C25.1 23.96 24.17 26.35 23.72 29.64L22.85 36.6C22.73 37.88 22.67 38.77 22.67 39.29C22.67 41.62 23.22 43.32 24.32 44.37C25.42 45.43 27.24 45.96 29.77 45.96L32.07 45.96C33.76 45.96 36.51 45.85 40.33 45.63L41.52 45.58L41.14 50.85C38 51.11 34.82 51.24 31.58 51.24L29.29 51.24C25.06 51.21 21.96 50.3 19.97 48.51C17.99 46.71 17 43.89 17 40.05C17 39.06 17.08 37.81 17.24 36.31L17.96 29.92C18.63 24.71 20.22 20.93 22.73 18.58C25.24 16.22 28.93 15.03 33.8 15L35.91 15ZM47.29 35.69C48.21 27.98 52.45 24.12 60 24.12L62.31 24.12C68.94 24.12 72.25 27.16 72.25 33.24C72.25 33.98 72.2 34.78 72.1 35.64L71.62 39.67C70.69 47.39 66.45 51.24 58.9 51.24L56.59 51.24C49.97 51.24 46.66 48.2 46.66 42.12C46.66 41.38 46.71 40.58 46.81 39.72L47.29 35.69ZM59.52 46.11C63.37 46.11 65.54 44.01 66.05 39.82L66.58 35.49C66.64 34.85 66.67 34.41 66.67 34.16C66.67 30.89 65.01 29.26 61.68 29.26L59.38 29.26C55.54 29.26 53.36 31.35 52.86 35.54L52.33 39.86C52.26 40.5 52.22 40.95 52.22 41.21C52.22 44.48 53.89 46.11 57.22 46.11L59.52 46.11ZM92.6 29.54C90.61 29.48 89.33 29.44 88.75 29.44C86.71 29.44 85.17 29.93 84.15 30.91C83.12 31.89 82.48 33.5 82.23 35.74L80.3 51.04L74.79 51.04L76.66 35.88C77.14 31.82 78.37 28.87 80.33 27.05C82.3 25.23 85.32 24.31 89.39 24.31C90.98 24.31 92.34 24.36 93.46 24.45L92.6 29.54ZM108.1 24.12C111.4 24.12 113.89 24.9 115.57 26.46C117.25 28 118.09 30.3 118.09 33.33C118.09 34.04 118.04 34.81 117.95 35.64L117.41 39.96L99.51 39.96C99.44 40.66 99.41 41.19 99.41 41.44C99.41 43.08 99.88 44.29 100.83 45.08C101.77 45.86 103.36 46.25 105.61 46.25L107.96 46.25C109.63 46.25 112.15 46.1 115.54 45.82L115.02 50.81C112.2 51.1 109.67 51.24 107.44 51.24L105.08 51.24C101.2 51.24 98.36 50.46 96.55 48.89C94.74 47.32 93.84 45.01 93.84 41.97C93.84 41.24 93.89 40.49 93.99 39.72L94.47 35.69C94.92 31.85 96.18 28.96 98.26 27.03C100.34 25.09 103.3 24.12 107.14 24.12L108.1 24.12ZM112.47 35.3C112.54 34.6 112.57 34.04 112.57 33.72C112.57 32.18 112.16 31.01 111.34 30.22C110.52 29.41 109.24 29.01 107.48 29.01L106.52 29.01C102.74 29.01 100.6 31.11 100.09 35.3L112.47 35.3ZM171.27 24.12C174.57 24.12 177.06 24.9 178.74 26.46C180.42 28 181.26 30.3 181.26 33.33C181.26 34.04 181.21 34.81 181.11 35.64L180.58 39.96L162.68 39.96C162.61 40.66 162.58 41.19 162.58 41.44C162.58 43.08 163.05 44.29 163.99 45.08C164.94 45.86 166.53 46.25 168.78 46.25L171.13 46.25C172.79 46.25 175.32 46.1 178.71 45.82L178.19 50.81C175.36 51.1 172.84 51.24 170.6 51.24L168.25 51.24C164.37 51.24 161.53 50.46 159.72 48.89C157.91 47.32 157.01 45.01 157.01 41.97C157.01 41.24 157.06 40.49 157.16 39.72L157.64 35.69C158.09 31.85 159.35 28.96 161.43 27.03C163.5 25.09 166.47 24.12 170.31 24.12L171.27 24.12ZM175.64 35.3C175.7 34.6 175.74 34.04 175.74 33.72C175.74 32.18 175.33 31.01 174.51 30.22C173.69 29.41 172.41 29.01 170.65 29.01L169.69 29.01C165.91 29.01 163.76 31.11 163.25 35.3L175.64 35.3ZM188.02 51L181.2 51L192.72 37.41L184.66 24.31L191.29 24.31L196.76 33.58L204.24 24.31L210.87 24.31L199.68 37.8L208.04 51L201.42 51L195.7 41.54L188.02 51ZM210.92 29.44L211.54 24.31L217.58 24.31L218.4 17.49L223.92 17.49L223.12 24.31L231.27 24.31L230.65 29.44L222.48 29.44L220.99 41.69C220.96 41.91 220.95 42.21 220.95 42.6C220.95 44.75 222.01 45.82 224.12 45.82C225.01 45.82 226.61 45.78 228.92 45.72L228.29 50.95C227.01 51.01 225.41 51.04 223.49 51.04C220.87 51.04 218.83 50.45 217.4 49.27C215.96 48.08 215.24 46.32 215.24 43.99C215.24 43.74 215.27 43.26 215.33 42.55L216.92 29.44L210.92 29.44Z" fill="#0882FF" fill-opacity="1.000000" fill-rule="evenodd"/>
		<path id="CoreNext" d="M125.57 15L130.99 15L145.49 41.54L145.74 41.97L149.04 15L154.47 15L150.05 51.04L144.63 51.04L130.09 24.6L129.89 24.17L126.58 51.04L121.16 51.04L125.57 15Z" fill="#FFC037" fill-opacity="1.000000" fill-rule="evenodd"/>
	</g>
	<path id="下一代WordPress主题" d="M201.16 73.97L193.55 73.97L194.12 69.45L199.87 69.45L200.07 67.57L194.36 67.57L194.81 63.74L201.02 63.74L201.24 61.84L195.07 61.84L194.18 59.3L192.02 59.3L192.84 61.84L186.58 61.84L186.36 63.74L192.72 63.74L192.26 67.57L186.84 67.57L186.62 69.45L192.04 69.45L191.47 73.97L184.78 73.97L184.56 75.87L200.94 75.87L201.16 73.97ZM64.8 62.99Q65.97 61.22 67.08 59.37L64.91 59.37Q62.23 63.96 59.04 67.9L61.32 67.9Q62.01 67.02 62.56 66.27L61.32 76.2L63.32 76.2L64.8 62.99ZM70.51 62.15Q70.51 60.36 70.53 59.39L68.56 59.39Q68.54 60.38 68.54 62.22Q68.54 63.15 68.58 64.83L65.64 65.12L65.4 67.02L68.65 66.69L68.71 67.75L68.82 69.19Q68.96 71.31 69.33 72.99Q69.71 74.7 70.28 75.43Q70.72 76.04 71.32 76.26Q71.67 76.4 72.08 76.4Q72.47 76.4 72.96 76.27Q73.63 76.11 74.16 75.9Q74.69 75.69 75.31 75.34L75.59 73.01Q74.09 73.92 72.76 74.36Q72.56 74.41 72.39 74.41Q72.33 74.41 72.27 74.4Q71.99 74.33 71.77 73.97Q71.37 73.39 71.13 72.13Q70.9 70.87 70.75 68.83L70.7 67.73L70.62 66.51L75.93 66L76.15 64.08L70.53 64.63Q70.51 63.86 70.51 62.15ZM205.62 66.51L212.33 66.51L212.95 61.47Q212.97 61.36 212.97 61.13Q212.97 60.52 212.67 60.17Q212.64 60.14 212.6 60.11L212.6 60.11Q212.24 59.76 211.53 59.76L207.79 59.76Q207.1 59.76 206.72 60.1Q206.38 60.42 206.31 61.04L205.62 66.51ZM73.76 59.87L71.88 59.87L73.43 63.26L75.4 63.26L73.76 59.87ZM220.93 63.41Q220.6 63.08 219.87 63.08L218.3 63.08L218.76 61.6L221.73 61.6L221.93 59.96L213.96 59.96L213.76 61.6L216.98 61.6L216.51 63.08L215.67 63.08Q214.81 63.08 214.43 63.46Q214.06 63.83 213.96 64.74L213.28 70.27L214.98 70.27L215.64 64.7L219.52 64.7L218.83 70.27L220.6 70.27L221.24 64.96Q221.27 64.59 221.27 64.43Q221.27 63.74 220.93 63.41ZM121.89 65.63Q120.44 66.83 120.14 69.39L119.96 70.91Q119.89 71.46 119.89 71.91Q119.89 73.65 120.76 74.59Q121.79 75.71 124.03 75.71L128.85 75.71L130.73 60.29L128.43 60.29L127.92 64.58L125.29 64.58Q123.15 64.58 121.89 65.63ZM36.72 60.4L20.53 60.4L20.31 62.31L26.92 62.31L25.42 76.42L27.54 76.42L29.05 62.31L36.48 62.31L36.72 60.4ZM81.53 75.57Q81.79 75.71 82.14 75.71L84.44 75.71Q84.82 75.71 85.11 75.55Q85.59 75.29 85.84 74.61L89.27 64.98L90.31 74.45Q90.4 75.12 90.72 75.42Q90.84 75.53 90.97 75.6Q91.23 75.74 91.55 75.74L93.91 75.74Q94.27 75.72 94.55 75.56Q95.02 75.3 95.26 74.63L100.13 60.71L97.56 60.71L93.14 73.54L92.59 73.54L91.17 61.91L88.01 61.91L83.74 73.52L83.2 73.52L81.94 60.69L79.44 60.69L80.9 74.43Q80.97 75.09 81.3 75.4Q81.41 75.5 81.53 75.57ZM143.12 61.68Q141.99 60.71 139.91 60.69L133.47 60.69L131.64 75.71L134 75.71L134.6 70.83L138.67 70.83Q141 70.82 142.39 69.67Q142.4 69.66 142.41 69.65Q142.63 69.46 142.83 69.25Q143.86 68.13 144.09 66.27L144.22 65.25Q144.25 64.98 144.25 64.48Q144.25 63.07 143.58 62.17Q143.38 61.91 143.12 61.68ZM208.02 61.27L211.09 61.27L210.96 62.44L207.88 62.44L208.02 61.27ZM140.89 68.09Q140.24 68.61 139 68.63L134.85 68.63L135.58 62.9L139.71 62.9Q140.84 62.91 141.36 63.36Q141.41 63.4 141.44 63.44Q141.9 63.89 141.9 64.79Q141.9 65.03 141.88 65.18L141.72 66.4Q141.55 67.55 140.89 68.09ZM207.55 65L207.7 63.83L210.8 63.83L210.65 65L207.55 65ZM101.99 65.63Q100.59 66.83 100.3 69.32L100.1 71Q100.03 71.53 100.03 72Q100.03 73.73 100.9 74.68Q101.93 75.8 104.17 75.8L105.14 75.8Q107.42 75.8 108.73 74.67Q110.13 73.46 110.43 70.98L110.63 69.3Q110.7 68.75 110.7 68.3Q110.7 66.56 109.83 65.62Q108.81 64.5 106.56 64.5L105.6 64.5Q103.31 64.5 101.99 65.63ZM161.71 65.47Q160.66 64.5 158.6 64.5L158.2 64.5Q155.82 64.5 154.53 65.68Q154.51 65.69 154.49 65.71Q153.2 66.91 152.92 69.32L152.72 71Q152.65 71.47 152.65 71.93Q152.65 73.5 153.42 74.44Q153.58 74.64 153.78 74.81Q154.91 75.8 157.34 75.8L158.32 75.8Q159.71 75.8 161.48 75.62L161.7 73.54Q159.58 73.72 158.54 73.72L157.56 73.72Q156.15 73.72 155.56 73.23Q155.48 73.16 155.41 73.08Q154.97 72.59 154.97 71.71Q154.97 71.55 155.02 71.11L155.02 71.09L162.47 71.09L162.7 69.3Q162.76 68.77 162.76 68.33Q162.76 66.63 161.91 65.67Q161.81 65.57 161.71 65.47ZM117.57 66.71Q117.94 66.71 119.18 66.75L119.54 64.63Q118.83 64.58 117.84 64.58Q115.29 64.58 114.06 65.72Q112.84 66.86 112.54 69.39L111.75 75.71L114.05 75.71L114.85 69.34Q115.02 67.93 115.66 67.32Q116.29 66.71 117.57 66.71ZM150.53 66.71Q150.89 66.71 152.14 66.75L152.5 64.63Q151.79 64.58 150.8 64.58Q148.25 64.58 147.02 65.72Q145.8 66.86 145.5 69.39L144.71 75.71L147.01 75.71L147.81 69.34Q147.98 67.93 148.62 67.32Q149.25 66.71 150.53 66.71ZM163.35 75.63Q164.7 75.76 166.54 75.8L167.22 75.8Q169.61 75.8 170.78 75.04Q170.91 74.96 171.03 74.86Q171.97 74.08 172.18 72.44Q172.22 72.2 172.22 71.75Q172.22 70.83 171.84 70.25Q171.72 70.05 171.55 69.89Q171.23 69.59 170.78 69.43Q169.97 69.17 168.71 69.05Q167.66 68.94 167.26 68.85Q166.87 68.75 166.67 68.52Q166.63 68.46 166.6 68.41Q166.49 68.22 166.49 67.97Q166.49 67.82 166.52 67.71Q166.58 67.31 166.79 67.1Q167 66.89 167.46 66.81Q167.91 66.71 168.79 66.71L172.44 66.71L172.69 64.59L169.88 64.58L169.06 64.58Q167.47 64.58 166.47 64.88Q165.55 65.15 165 65.77Q164.96 65.81 164.92 65.86Q164.35 66.55 164.22 67.77Q164.17 68.21 164.17 68.39Q164.17 69.28 164.54 69.81Q164.9 70.34 165.63 70.62Q166.58 70.89 167.62 70.98L168.08 71.04Q168.97 71.13 169.29 71.22Q169.58 71.29 169.72 71.47Q169.74 71.49 169.75 71.51Q169.92 71.67 169.92 72.17Q169.92 72.35 169.9 72.46Q169.83 72.77 169.66 73Q169.51 73.22 169.26 73.38Q168.75 73.7 167.47 73.7L166.8 73.7Q165.61 73.66 163.66 73.48L163.35 75.63ZM173.27 75.63Q174.62 75.76 176.46 75.8L177.14 75.8Q179.53 75.8 180.7 75.04Q180.83 74.96 180.95 74.86Q181.89 74.08 182.1 72.44Q182.14 72.2 182.14 71.75Q182.14 70.83 181.76 70.25Q181.64 70.05 181.47 69.89Q181.15 69.59 180.7 69.43Q179.89 69.17 178.63 69.05Q177.58 68.94 177.18 68.85Q176.79 68.75 176.59 68.52Q176.55 68.46 176.52 68.41Q176.41 68.22 176.41 67.97Q176.41 67.82 176.44 67.71Q176.5 67.31 176.71 67.1Q176.92 66.89 177.38 66.81Q177.83 66.71 178.71 66.71L182.36 66.71L182.61 64.59L179.8 64.58L178.98 64.58Q177.39 64.58 176.39 64.88Q175.47 65.15 174.92 65.77Q174.88 65.81 174.84 65.86Q174.27 66.55 174.14 67.77Q174.09 68.21 174.09 68.39Q174.09 69.28 174.46 69.81Q174.82 70.34 175.55 70.62Q176.5 70.89 177.54 70.98L178 71.04Q178.89 71.13 179.21 71.22Q179.5 71.29 179.64 71.47Q179.66 71.49 179.67 71.51Q179.84 71.67 179.84 72.17Q179.84 72.35 179.82 72.46Q179.75 72.77 179.58 73Q179.43 73.22 179.18 73.38Q178.67 73.7 177.39 73.7L176.72 73.7Q175.53 73.66 173.58 73.48L173.27 75.63ZM32.61 70.82L34.95 70.82L31.5 65.16L29.31 65.16L32.61 70.82ZM217.04 71.11Q218.08 72.22 219.54 74.05L221.26 73.39Q218.96 70.78 217.72 69.61Q217.92 69.1 218.04 68.35L218.35 65.6L216.64 65.6L216.36 68.1Q216.24 69.01 215.94 69.72Q215.93 69.74 215.92 69.76Q215.64 70.43 215.14 71.02Q214.21 72.09 212.22 73.26L213.86 74.17Q214.98 73.46 215.74 72.74Q216.24 72.27 216.64 71.72Q216.85 71.43 217.04 71.11ZM56.01 67.97L56.28 65.94L40.09 65.94L39.84 67.97L56.01 67.97ZM160.42 69.14L160.42 69.16L155.26 69.16Q155.43 67.68 156.26 67.03Q156.9 66.53 157.94 66.53L158.34 66.53Q159.44 66.53 159.94 67.04Q159.98 67.07 160.01 67.1Q160.46 67.6 160.46 68.5Q160.46 68.7 160.42 69.14ZM107.12 73.13Q106.47 73.66 105.4 73.66L104.43 73.66Q103.37 73.66 102.85 73.13Q102.35 72.62 102.35 71.62Q102.35 71.46 102.4 71.05L102.62 69.25Q102.79 67.81 103.6 67.16Q104.26 66.64 105.34 66.64L106.29 66.64Q107.35 66.64 107.87 67.17Q108.37 67.68 108.37 68.68Q108.37 68.83 108.33 69.23L108.11 71.04Q107.94 72.49 107.12 73.13ZM127.66 66.67L126.82 73.57L124.29 73.57Q123.22 73.57 122.7 73.04Q122.21 72.53 122.21 71.55Q122.21 71.38 122.26 70.98L122.46 69.34Q122.65 67.75 123.52 67.11Q124.12 66.67 125.04 66.67L127.66 66.67ZM206.95 71.71Q207.11 70.91 207.26 69.7L205.74 69.7Q205.47 71.6 205.03 73.12Q204.64 74.49 203.96 75.7Q203.88 75.84 203.79 75.98L205.38 76.51Q205.94 75.36 206.44 73.77Q207.48 74.81 208.5 75.41Q209.9 76.24 211.2 76.24L221 76.24L221.49 74.61L211.95 74.61Q210.94 74.7 209.76 74.16L210 72.04L212.24 72.04L212.42 70.51L210.16 70.51L210.34 68.96L212.79 68.96L212.97 67.4L205.12 67.4L204.92 68.96L208.57 68.96L208.14 73.08Q207.4 72.4 206.95 71.71Z" fill="#232323" fill-opacity="1.000000" fill-rule="evenodd"/>
</svg>
