<svg width="40.000000" height="40.000004" viewBox="0 0 40 40" fill="none" xmlns="http://www.w3.org/2000/svg" xmlns:xlink="http://www.w3.org/1999/xlink">
	<defs/>
	<circle id="椭圆 1" cx="20.000000" cy="20.000004" r="20.000000" fill="#EBF2FF"/>
	<path id="path" d="M39.5442 1.20516C39.5322 1.10945 39.5039 1.01825 39.4595 0.931549C39.4152 0.844849 39.357 0.767422 39.2852 0.699265C39.2133 0.631107 39.1317 0.575974 39.0403 0.533859C38.9489 0.491745 38.8528 0.464966 38.7519 0.453526C31.8038 -1.10756 24.6118 1.43643 20.4056 6.92913C20.2527 7.13235 20.0496 7.26751 19.7961 7.3346C17.3582 7.91278 15.1031 9.12621 13.3355 10.8607C12.4823 11.6702 11.7509 12.5375 11.1414 13.5204C10.6538 14.3306 11.5071 15.3135 12.4823 14.9666C14.006 14.4462 15.6516 14.1564 17.2363 14.1564C17.2363 14.272 17.1753 14.4462 17.1753 14.5618C18.3462 15.8567 19.5651 17.1094 20.8322 18.32C22.1121 19.5342 23.3921 20.6905 24.7337 21.7891C24.8556 21.7891 25.0385 21.7313 25.1604 21.7313C25.1604 23.2923 24.9166 24.7949 24.3071 26.241C24.2627 26.34 24.2361 26.4431 24.2272 26.5503C24.2184 26.6576 24.2277 26.7633 24.2552 26.8677C24.2827 26.972 24.3269 27.0695 24.3879 27.1601C24.449 27.2508 24.5236 27.3299 24.6118 27.3974C24.9775 27.6865 25.4651 27.7443 25.8308 27.5131C26.8669 26.9349 27.7811 26.241 28.6344 25.4316C30.4019 23.7549 31.6819 21.6156 32.3523 19.2443C32.4132 19.0138 32.5343 18.7825 32.7789 18.6662C38.5081 14.6775 41.1297 7.7964 39.5442 1.20516Z" fill-rule="nonzero" fill="#377FFC"/>
	<path id="path" d="M15.832 19.4308C14.7349 20.4715 10.9561 27.5253 12.297 28.7973C13.6378 30.0692 19.5498 24.9813 20.6477 23.9406C21.744 22.8998 21.5611 21.0497 20.2203 19.7777C18.8794 18.5057 16.929 18.39 15.832 19.4308Z" fill-rule="nonzero" fill="#ABC6F6"/>
	<path id="path" d="M28.8799 5.50733C25.7743 5.48869 23.2127 7.90158 23.2304 10.8308C23.2304 13.7514 25.7456 16.1466 28.8159 16.1486C31.9144 16.1505 34.4463 13.762 34.4478 10.8351C34.4493 7.91736 31.9331 5.52598 28.8799 5.50733ZM26.6027 15.1054C26.2513 14.9653 25.9397 14.7616 25.6488 14.5331C24.5275 13.6467 23.9069 12.5108 23.8021 11.1301C23.7471 10.4048 23.8706 9.70157 24.163 9.02795C24.1782 8.99353 24.1797 8.93281 24.2316 8.93568C24.2704 8.93903 24.2735 8.99449 24.2856 9.02795C25.0443 10.9972 25.8026 12.9659 26.5598 14.9361C26.58 14.9868 26.5951 15.0427 26.6122 15.0958L26.6127 15.1049L26.6027 15.1054ZM30.3838 15.3798C29.4441 15.6609 28.4983 15.6824 27.5429 15.4506C27.4148 15.4209 27.428 15.3621 27.4602 15.2746C27.8046 14.3314 28.1454 13.3914 28.4877 12.4482C28.6122 12.1054 28.7352 11.7626 28.8603 11.4222C28.8754 11.3811 28.8804 11.3333 28.9384 11.2869C28.9918 11.4251 29.0428 11.5494 29.0907 11.6751C29.5469 12.8603 30.0022 14.045 30.4604 15.2297C30.4947 15.3157 30.4786 15.3521 30.3838 15.3798ZM31.3614 13.6644C31.3079 13.63 31.3039 13.5851 31.2908 13.5478C30.7226 11.9491 30.1554 10.3503 29.5883 8.75162C29.5313 8.59098 29.5318 8.59194 29.7143 8.57521C29.8434 8.56469 29.9729 8.55369 30.1015 8.536C30.2326 8.51736 30.3031 8.43226 30.2915 8.32134C30.281 8.21281 30.2023 8.14827 30.0702 8.15258C29.7561 8.16453 29.4421 8.18748 29.127 8.19895C28.5749 8.21712 28.0249 8.18509 27.4748 8.15353C27.4471 8.15162 27.4194 8.14971 27.3922 8.15114C27.2727 8.15736 27.1986 8.22094 27.187 8.32851C27.1759 8.42939 27.2439 8.51688 27.3599 8.53361C27.5031 8.55322 27.6483 8.56755 27.7935 8.57759C27.8656 8.58286 27.9094 8.60341 27.9351 8.66939C28.1766 9.30094 28.4191 9.93249 28.6631 10.5636C28.6838 10.6166 28.6737 10.6654 28.6551 10.7156C28.3148 11.6818 27.975 12.6485 27.6352 13.6157C27.6246 13.6458 27.6185 13.6816 27.5837 13.7022C27.5379 13.6807 27.5368 13.6348 27.5237 13.5984C26.95 11.982 26.3773 10.3647 25.8046 8.7478C25.7486 8.58955 25.7496 8.58955 25.9225 8.57473C26.0441 8.56469 26.1661 8.55513 26.287 8.53935C26.4368 8.5207 26.519 8.43752 26.5084 8.32708C26.4973 8.20803 26.4111 8.14684 26.2543 8.15162C25.8489 8.16549 25.4461 8.20708 25.0398 8.20182C24.945 8.20039 24.8507 8.20182 24.7564 8.19943C24.7232 8.19847 24.6783 8.21329 24.6617 8.17409C24.6496 8.14397 24.6793 8.11911 24.6969 8.09473C24.9047 7.8117 25.1391 7.55067 25.4073 7.31784C26.2099 6.62032 27.1502 6.19386 28.2321 6.07864C29.6997 5.92374 31.0054 6.30191 32.1363 7.20836C32.1589 7.22653 32.1907 7.23991 32.1907 7.27577C32.1756 7.30015 32.1494 7.29633 32.1267 7.29919C31.5822 7.36804 31.2434 7.81457 31.3478 8.32851C31.3967 8.57186 31.5172 8.78508 31.6502 8.99401C31.7657 9.17616 31.8872 9.35544 31.985 9.54668C32.2567 10.0802 32.3157 10.6353 32.1433 11.2042C31.9018 12.0036 31.6442 12.8 31.3931 13.5975C31.3876 13.618 31.3745 13.6367 31.3614 13.6644ZM31.4037 14.918C31.3962 14.8582 31.4269 14.8085 31.4456 14.7573C31.9734 13.3145 32.5033 11.874 33.0301 10.4311C33.2399 9.85648 33.3452 9.26748 33.2751 8.65791C33.2731 8.64071 33.2681 8.62158 33.3019 8.59529C33.9426 9.80341 34.0581 11.0464 33.6255 12.3301C33.2651 13.3881 32.0808 14.7616 31.4037 14.918Z" fill-rule="nonzero" fill="#FFFFFF"/>
	<path id="path" d="M16.1301 20.5254C15.338 21.2768 12.6095 26.37 13.5777 27.2884C14.5458 28.2069 18.8146 24.5331 19.6073 23.7817C20.3989 23.0302 20.2669 21.6943 19.2987 20.7758C18.3305 19.8574 16.9223 19.7739 16.1301 20.5254Z" fill-rule="nonzero" fill="#83AEF9"/>
</svg>
