<?xml version="1.0" encoding="utf-8"?>
<!-- Generator: Adobe Illustrator 25.2.1, SVG Export Plug-In . SVG Version: 6.00 Build 0)  -->
<svg version="1.1" id="图层_1" xmlns="http://www.w3.org/2000/svg" xmlns:xlink="http://www.w3.org/1999/xlink" x="0px" y="0px"
	 viewBox="0 0 256 256" style="enable-background:new 0 0 256 256;" xml:space="preserve">
<style type="text/css">
	.st0{fill:#EBF2FF;}
	.st1{fill:#377FFC;}
	.st2{fill:#ABC6F6;}
	.st3{fill:#21759B;}
</style>
<path class="st0" d="M0.1,127.2c0,70.2,56.9,127.1,127.1,127.1s127.1-56.9,127.1-127.1C254.3,57,197.4,0,127.2,0
	C57,0,0.1,57,0.1,127.2z"/>
<path class="st1" d="M198.1,61.4c-0.3-2.1-1.9-3.8-4.1-4.1c-35.6-8.4-72.3,5.3-93.9,34.9c-0.8,1.1-1.9,1.8-3.1,2.2
	c-12.5,3.1-24,9.7-33.1,19c-4.4,4.4-8.1,9-11.2,14.3c-2.5,4.4,1.9,9.7,6.9,7.8c7.8-2.8,16.2-4.4,24.3-4.4c0,0.6-0.3,1.6-0.3,2.2
	c6,7,12.2,13.7,18.7,20.3c6.5,6.5,13.1,12.8,20,18.7c0.6,0,1.6-0.3,2.2-0.3c0,8.4-1.2,16.5-4.4,24.3c-0.9,2.2-0.3,4.7,1.6,6.2
	c1.9,1.6,4.4,1.9,6.2,0.6c5.3-3.1,10-6.9,14.3-11.2c9-9,15.6-20.6,19-33.4c0.3-1.2,0.9-2.5,2.2-3.1C192.8,134.1,206.2,97,198.1,61.4
	L198.1,61.4z M160.9,120.7c-5.2,5.3-13.1,6.9-20,4.1c-6.9-2.8-11.2-9.7-11.2-17.2c0-7.5,4.4-14.3,11.2-17.2c6.9-2.8,14.7-1.2,20,4.1
	C168.1,101.7,168.1,113.5,160.9,120.7z"/>
<path class="st2" d="M78,157.5c-5.1,5.1-22.5,39.4-16.3,45.6s33.5-18.6,38.6-23.7c5.1-5.1,4.2-14.1-2-20.3
	C92.1,153,83.1,152.4,78,157.5z"/>
<g>
	<path class="st3" d="M132,107.9c0-2.3,0.5-4.4,1.4-6.4l7.6,20.5C135.6,119.4,132,114.1,132,107.9L132,107.9z M158.9,106.8
		c0,1.3-0.5,2.8-1.2,4.9l-1.6,5l-5.8-16.2c1,0,1.8-0.1,1.8-0.1c0.3,0,0.6-0.4,0.5-0.7c0-0.3-0.3-0.6-0.6-0.5c0,0-2.6,0.2-4.3,0.2
		c-1.6,0-4.3-0.2-4.3-0.2c-0.9,0-1,1.2-0.1,1.2c0,0,0.8,0.1,1.7,0.1l2.5,6.4l-3.5,9.9l-5.9-16.3c0.6,0,1.2-0.1,1.8-0.1
		c0.3,0,0.6-0.4,0.5-0.7c0-0.3-0.3-0.6-0.6-0.5c0,0-2.6,0.2-4.3,0.2c-0.3,0-0.7,0-1,0c2.9-4.1,7.8-6.8,13.5-6.8c4.2,0,8,1.5,10.9,4
		c-0.1,0-0.1,0-0.2,0c-1.5,0-2.7,1.2-2.7,2.7c0,1.2,0.8,2.3,1.6,3.5C158.2,103.7,158.9,105,158.9,106.8L158.9,106.8z M162.1,100.2
		c1.2,2.2,1.9,4.8,1.9,7.3c0,5.6-3.1,10.5-7.7,13.2l4.7-13.5c0.9-2.2,1.2-3.9,1.2-5.5C162.3,101.2,162.2,100.7,162.1,100.2
		L162.1,100.2z M148.5,109.2l5.1,13c0,0.1,0.1,0.1,0.1,0.2c-1.8,0.6-3.7,0.9-5.5,0.9c-1.6,0-3.2-0.2-4.7-0.6L148.5,109.2
		L148.5,109.2z"/>
</g>
</svg>
