<svg xmlns="http://www.w3.org/2000/svg" xmlns:xlink="http://www.w3.org/1999/xlink" width="16" height="16" fill="none"><g><mask id="b" fill="#fff"><use xlink:href="#a"/></mask><g mask="url(#b)"><path fill-rule="evenodd" d="M8 14.667c1.84 0 3.508-.746 4.714-1.953A6.646 6.646 0 0014.667 8c0-1.84-.747-3.508-1.953-4.714A6.646 6.646 0 008 1.333c-1.841 0-3.508.747-4.714 1.953A6.646 6.646 0 001.333 8c0 1.84.746 3.508 1.953 4.714A6.646 6.646 0 008 14.667z" fill="#367FFD"/><path d="M8 14q1.221 0 2.335-.471 1.077-.456 1.907-1.286.831-.831 1.287-1.908.47-1.114.47-2.335 0-1.221-.47-2.335-.456-1.077-1.287-1.908-.83-.83-1.907-1.286Q9.221 2 8 2q-1.221 0-2.335.471-1.077.456-1.908 1.286-.83.831-1.286 1.908Q2 6.779 2 8q0 1.221.471 2.335.456 1.077 1.286 1.908.831.83 1.908 1.286Q6.779 14 8 14zm0 1.333q-1.492 0-2.855-.576-1.316-.557-2.33-1.572-1.015-1.014-1.572-2.33Q.667 9.492.667 8t.576-2.855Q1.8 3.83 2.814 2.815 3.83 1.8 5.145 1.243 6.508.667 8 .667q1.491 0 2.855.576 1.316.557 2.33 1.572 1.015 1.014 1.572 2.33.576 1.363.576 2.855t-.576 2.855q-.557 1.316-1.572 2.33-1.014 1.015-2.33 1.572-1.364.576-2.855.576z" fill="#367FFD"/><path fill-rule="evenodd" d="M8 3.667a.833.833 0 110 1.666.833.833 0 010-1.666z" fill="#FFFFFF"/><path d="M7.5 11.333V6.667h.667v.666H7.5q-.066 0-.13-.012-.064-.013-.125-.038-.06-.026-.115-.062-.055-.037-.101-.083-.047-.046-.083-.101-.037-.055-.062-.115-.025-.06-.038-.125-.013-.065-.013-.13 0-.066.013-.13.013-.065.038-.125.025-.061.062-.116.036-.054.083-.1.046-.047.1-.084.055-.036.116-.061.06-.025.125-.038Q7.434 6 7.5 6h.667c.368 0 .666.298.666.667v4.666q0 .066-.012.13-.013.065-.038.126-.026.06-.062.115-.037.054-.083.1-.046.047-.1.084-.056.036-.116.061-.06.025-.125.038-.065.013-.13.013-.066 0-.13-.013-.065-.013-.125-.038-.061-.025-.116-.061-.054-.037-.1-.083-.047-.047-.084-.101-.036-.055-.061-.116-.025-.06-.038-.125-.013-.064-.013-.13z" fill="#FFFFFF"/><path d="M7 10.667h2.333q.066 0 .13.013.065.012.125.037.061.025.116.062.054.037.1.083.047.046.084.101.036.055.061.115.025.06.038.125.013.065.013.13 0 .066-.013.13-.013.065-.038.126-.025.06-.061.115-.037.054-.083.1-.047.047-.101.084-.055.036-.116.061-.06.025-.125.038Q9.4 12 9.333 12H7q-.066 0-.13-.013t-.125-.038q-.06-.025-.115-.061-.055-.037-.101-.083-.047-.047-.083-.101-.037-.055-.062-.116-.025-.06-.038-.125-.013-.064-.013-.13 0-.065.013-.13.013-.064.038-.125.025-.06.062-.115.036-.055.083-.101.046-.046.1-.083.055-.037.116-.062.06-.025.125-.037.064-.013.13-.013z" fill="#FFFFFF"/></g></g><defs><rect id="a" x="0" y="0" width="16" height="16" rx="0" ry="0"/></defs></svg>