<svg xmlns="http://www.w3.org/2000/svg" xmlns:xlink="http://www.w3.org/1999/xlink" width="16" height="16" fill="none"><g><mask id="b" fill="#fff"><use xlink:href="#a"/></mask><g mask="url(#b)"><path fill-rule="evenodd" d="M5.667 4L8 1.667 10.333 4 8 6.333 5.667 4z" fill="#D3D8E0"/><path d="M5.195 3.529L7.53 1.195c.26-.26.682-.26.942 0l2.334 2.334c.26.26.26.682 0 .942L8.47 6.805a.667.667 0 01-.942 0L5.195 4.47a.667.667 0 010-.942zm.943.942L5.667 4l.471-.471 2.333 2.333-.47.471-.472-.471 2.333-2.333.471.471-.471.471-2.333-2.333L8 1.667l.471.471-2.333 2.333z" fill="#D3D8E0"/><path fill-rule="evenodd" d="M5.667 12L8 9.667 10.333 12 8 14.333 5.667 12z" fill="#D3D8E0"/><path d="M5.195 11.529L7.53 9.195c.26-.26.682-.26.942 0l2.334 2.334c.26.26.26.682 0 .942L8.47 14.805a.667.667 0 01-.942 0L5.195 12.47a.667.667 0 010-.942zm.943.942L5.667 12l.471-.471 2.333 2.333-.47.471-.472-.471 2.333-2.333.471.471-.471.471-2.333-2.333L8 9.667l.471.471-2.333 2.333z" fill="#D3D8E0"/><path fill-rule="evenodd" d="M9.667 8L12 5.667 14.333 8 12 10.333 9.667 8z" fill="#647587"/><path d="M9.195 7.529l2.334-2.334c.26-.26.682-.26.943 0l2.333 2.334c.26.26.26.682 0 .942l-2.333 2.334a.667.667 0 01-.943 0L9.195 8.47a.667.667 0 010-.942zm.943.942L9.667 8l.471-.471 2.334 2.333-.472.471-.471-.471 2.333-2.333.471.471-.471.471-2.333-2.333.471-.471.472.471-2.334 2.333z" fill="#647587"/><path fill-rule="evenodd" d="M1.667 8L4 5.667 6.333 8 4 10.333 1.667 8z" fill="#D3D8E0"/><path d="M1.195 7.529L3.53 5.195c.26-.26.682-.26.942 0L6.805 7.53c.26.26.26.682 0 .942L4.47 10.805a.667.667 0 01-.942 0L1.195 8.47a.667.667 0 010-.942zm.943.942L1.667 8l.471-.471 2.333 2.333-.47.471-.472-.471 2.333-2.333.471.471-.471.471-2.333-2.333L4 5.667l.471.471-2.333 2.333z" fill="#D3D8E0"/></g></g><defs><rect id="a" x="0" y="0" width="16" height="16" rx="0" ry="0"/></defs></svg>