<svg xmlns="http://www.w3.org/2000/svg" xmlns:xlink="http://www.w3.org/1999/xlink" width="16" height="16" fill="none"><g><mask id="b" fill="#fff"><use xlink:href="#a"/></mask><g mask="url(#b)"><path fill-rule="evenodd" d="M1.667 2.667c0-.369.298-.667.666-.667h4L8 4h5.667c.368 0 .666.298.666.667v8.666a.667.667 0 01-.666.667H2.333a.667.667 0 01-.666-.667V2.667z" fill="#367FFD"/><path d="M1 2.667c0-.737.597-1.334 1.333-1.334h4c.198 0 .386.088.513.24l1.666 2L8 4v-.667h5.667c.736 0 1.333.597 1.333 1.334v8.666c0 .737-.597 1.334-1.333 1.334H2.333A1.333 1.333 0 011 13.333V2.667zm1.333 0v10.666h11.334V4.667H8a.667.667 0 01-.512-.24l-1.667-2L6.333 2v.667h-4z" fill="#367FFD"/><path d="M5.138 6.862l1.667 1.667c.26.26.26.682 0 .942l-1.667 1.667q-.046.046-.1.083-.055.037-.116.062-.06.025-.125.037-.065.013-.13.013-.066 0-.13-.013-.065-.012-.125-.037-.061-.025-.116-.062-.054-.037-.1-.083-.047-.046-.084-.101-.036-.055-.061-.115-.025-.06-.038-.125Q4 10.732 4 10.667q0-.066.013-.13.013-.065.038-.126.025-.06.061-.115.037-.054.083-.1l1.667-1.667.471.471-.471.471-1.667-1.666q-.046-.047-.083-.101-.036-.055-.061-.116-.025-.06-.038-.125Q4 7.4 4 7.333q0-.065.013-.13.013-.064.038-.125.025-.06.061-.115.037-.055.083-.101.047-.046.101-.083.055-.036.116-.062.06-.025.125-.038.064-.012.13-.012.065 0 .13.012.064.013.125.038.06.026.115.062.055.037.101.083zM8.667 10h2.666q.066 0 .13.013.065.013.126.038.06.025.115.061.054.037.1.083.047.047.084.101.036.055.061.116.026.06.038.125.013.064.013.13 0 .065-.013.13-.012.064-.038.125-.025.06-.061.115-.037.055-.083.101-.047.046-.101.083-.055.037-.116.062-.06.025-.124.037-.065.013-.13.013H8.666q-.066 0-.13-.013-.065-.012-.125-.037-.061-.025-.116-.062-.054-.037-.1-.083-.047-.046-.084-.101-.036-.055-.061-.115-.025-.06-.038-.125Q8 10.732 8 10.667q0-.066.013-.13.013-.065.038-.126.025-.06.061-.115.037-.054.083-.1.047-.047.101-.084.055-.036.116-.061.06-.025.125-.038Q8.6 10 8.667 10z" fill="#FFFFFF"/></g></g><defs><rect id="a" x="0" y="0" width="16" height="16" rx="0" ry="0"/></defs></svg>