<svg xmlns="http://www.w3.org/2000/svg" xmlns:xlink="http://www.w3.org/1999/xlink" width="16" height="16" fill="none"><g><mask id="b" fill="#fff"><use xlink:href="#a"/></mask><g mask="url(#b)"><path fill-rule="evenodd" d="M14.667 2H1.333v10h3v1.667L7.667 12h7V2z" fill="#D3D8E0"/><path d="M14.667 2.667H1.333V2H2v10h-.667v-.667h3c.368 0 .667.299.667.667v1.667h-.667l-.298-.597 3.333-1.666a.667.667 0 01.299-.07h7V12H14V2h.667v.667zm0-1.334c.368 0 .666.299.666.667v10a.667.667 0 01-.666.667h-7V12l.298.596-3.334 1.667a.667.667 0 01-.964-.596V12h.666v.667h-3A.667.667 0 01.667 12V2c0-.368.298-.667.666-.667h13.334z" fill="#D3D8E0"/><path d="M5.333 6.5v1q0 .066-.012.13-.013.064-.038.125-.025.06-.062.115-.036.055-.083.101-.046.047-.1.083-.055.037-.116.062-.06.025-.125.038-.065.013-.13.013-.066 0-.13-.013-.065-.013-.125-.038-.061-.025-.116-.062-.054-.036-.1-.083-.047-.046-.084-.1-.036-.055-.061-.116-.025-.06-.038-.125Q4 7.566 4 7.5v-1q0-.066.013-.13t.038-.125q.025-.06.061-.115.037-.055.083-.101.047-.047.101-.083.055-.037.116-.062.06-.025.125-.038.064-.013.13-.013.065 0 .13.013.064.013.125.038.06.025.115.062.055.036.101.083.047.046.083.1.037.055.062.116.025.06.038.125.012.064.012.13zM8.667 6.5v1q0 .066-.013.13t-.038.125q-.025.06-.062.115-.036.055-.083.101-.046.047-.1.083-.055.037-.116.062-.06.025-.125.038-.064.013-.13.013t-.13-.013q-.064-.013-.125-.038-.06-.025-.115-.062-.055-.036-.101-.083-.047-.046-.083-.1-.037-.055-.062-.116-.025-.06-.038-.125-.013-.064-.013-.13v-1q0-.066.013-.13t.038-.125q.025-.06.062-.115.036-.055.083-.101.046-.047.1-.083.055-.037.116-.062.06-.025.125-.038.064-.013.13-.013t.13.013q.064.013.125.038.06.025.115.062.055.036.101.083.047.046.083.1.037.055.062.116.025.06.038.125.013.064.013.13zM12 6.5v1q0 .066-.013.13t-.038.125q-.025.06-.061.115-.037.055-.083.101-.047.047-.101.083-.055.037-.116.062-.06.025-.125.038-.064.013-.13.013-.065 0-.13-.013-.064-.013-.125-.038-.06-.025-.115-.062-.055-.036-.101-.083-.047-.046-.083-.1-.037-.055-.062-.116-.025-.06-.038-.125-.012-.064-.012-.13v-1q0-.066.012-.13.013-.064.038-.125.025-.06.062-.115.036-.055.083-.101.046-.047.1-.083.056-.037.116-.062.06-.025.125-.038.065-.013.13-.013.066 0 .13.013.065.013.125.038.061.025.116.062.054.036.1.083.047.046.084.1.036.055.061.116.025.06.038.125.013.064.013.13z" fill="#647587"/></g></g><defs><rect id="a" x="0" y="0" width="16" height="16" rx="0" ry="0"/></defs></svg>