<svg xmlns="http://www.w3.org/2000/svg" xmlns:xlink="http://www.w3.org/1999/xlink" width="16" height="16" fill="none"><g><mask id="b" fill="#fff"><use xlink:href="#a"/></mask><g mask="url(#b)"><path fill-rule="evenodd" d="M6.667 2H2v3.667h4.667V2z" fill="#337EFF"/><path d="M1.333 2v3.667q0 .065.013.13.013.064.038.125.025.06.062.115.036.055.083.101.046.046.1.083.055.036.116.062.06.025.125.038.064.012.13.012h4.667a.667.667 0 00.666-.666V2q0-.066-.012-.13-.013-.064-.038-.125-.026-.06-.062-.115-.037-.055-.083-.101-.046-.047-.101-.083-.055-.037-.115-.062-.06-.025-.125-.038-.065-.013-.13-.013H2A.667.667 0 001.333 2zm1.334.667H6V5H2.667V2.667z" fill="#337EFF"/><path fill-rule="evenodd" d="M14 10.333H9.333V14H14v-3.667z" fill="#337EFF"/><path d="M8.667 10.333V14q0 .066.012.13.013.064.038.125.025.06.062.115.036.055.083.101.046.047.1.083.055.037.116.062.06.025.125.038.065.013.13.013H14a.667.667 0 00.667-.667v-3.667q0-.065-.013-.13-.013-.064-.038-.125-.025-.06-.062-.115-.036-.055-.083-.101-.046-.046-.1-.083-.055-.036-.116-.062-.06-.025-.125-.038-.064-.012-.13-.012H9.333a.667.667 0 00-.666.666zM10 11h3.333v2.333H10V11z" fill="#337EFF"/><path fill-rule="evenodd" d="M14 2H9.333v5.667H14V2z" fill="#FFFFFF"/><path d="M8.667 2v5.667q0 .065.012.13.013.064.038.125.025.06.062.115.036.055.083.101.046.046.1.083.055.036.116.062.06.025.125.038.065.012.13.012H14a.667.667 0 00.667-.666V2q0-.066-.013-.13t-.038-.125q-.025-.06-.062-.115-.036-.055-.083-.101-.046-.047-.1-.083-.055-.037-.116-.062-.06-.025-.125-.038-.064-.013-.13-.013H9.333A.667.667 0 008.667 2zM10 2.667h3.333V7H10V2.667z" fill="#337EFF"/><path fill-rule="evenodd" d="M6.667 8.333H2V14h4.667V8.333z" fill="#337EFF"/><path d="M1.333 8.333V14q0 .066.013.13t.038.125q.025.06.062.115.036.055.083.101.046.047.1.083.055.037.116.062.06.025.125.038.064.013.13.013h4.667A.667.667 0 007.333 14V8.333q0-.065-.012-.13-.013-.064-.038-.125-.026-.06-.062-.115-.037-.055-.083-.101-.046-.046-.101-.083-.055-.036-.115-.062-.06-.025-.125-.038-.065-.012-.13-.012H2a.667.667 0 00-.667.666zM2.667 9H6v4.333H2.667V9z" fill="#337EFF"/></g></g><defs><rect id="a" x="0" y="0" width="16" height="16" rx="0" ry="0"/></defs></svg>