<svg xmlns="http://www.w3.org/2000/svg" xmlns:xlink="http://www.w3.org/1999/xlink" width="16" height="16" fill="none"><g><mask id="b" fill="#fff"><use xlink:href="#a"/></mask><g mask="url(#b)"><path fill-rule="evenodd" d="M2.973 2.905A.692.692 0 013.623 2h8.755c.463 0 .79.463.649.905C12.633 4.133 12 6.363 12 8c0 1.637.633 3.867 1.027 5.095a.692.692 0 01-.65.905H3.623a.692.692 0 01-.649-.905C3.367 11.867 4 9.637 4 8c0-1.637-.633-3.867-1.027-5.095z" fill="#367FFD"/><path d="M2.338 3.108q-.208-.65.19-1.208.404-.567 1.094-.567h8.756q.69 0 1.094.567.398.558.19 1.208-.995 3.105-.995 4.892 0 1.787.995 4.892.208.65-.19 1.208-.404.567-1.094.567H3.622q-.69 0-1.094-.567-.398-.558-.19-1.208.995-3.105.995-4.892 0-1.787-.995-4.892zm1.27-.407Q4.667 6.004 4.667 8q0 1.996-1.059 5.299-.004.013.006.027.005.007.008.007h8.756q.003 0 .009-.007.01-.014.005-.027Q11.333 9.996 11.333 8q0-1.996 1.059-5.299.004-.013-.005-.027-.006-.007-.01-.007H3.623q-.003 0-.008.007-.01.014-.006.027z" fill="#367FFD"/><path d="M1.867 4.6q.437.583.642 1.65.158.82.158 1.75t-.158 1.75q-.205 1.067-.642 1.65-.04.053-.089.096-.049.044-.105.078-.057.033-.119.055-.061.022-.126.031-.065.01-.131.006t-.13-.02q-.063-.017-.122-.045-.06-.028-.112-.068-.052-.04-.096-.088-.044-.049-.077-.105-.034-.057-.056-.119-.021-.062-.03-.127-.01-.065-.006-.13.003-.066.02-.13.016-.063.044-.122.029-.06.068-.112.252-.337.4-1.1.133-.697.133-1.5T1.2 6.5q-.147-.763-.4-1.1-.038-.053-.067-.112-.028-.059-.045-.123-.016-.063-.02-.129-.003-.065.006-.13.01-.065.031-.127.022-.062.056-.119.033-.056.077-.105.044-.049.096-.088.053-.04.112-.068.06-.029.123-.045.063-.016.129-.02.066-.003.13.006.066.01.127.031.062.022.119.055.056.034.105.078.05.043.089.096z" fill="#367FFD"/><path d="M6 4.5h4q.066 0 .13.013t.125.038q.06.025.115.061.055.037.101.083.047.047.083.101.037.055.062.116.025.06.038.125.013.064.013.13 0 .065-.013.13-.013.064-.038.125-.025.06-.062.115-.036.055-.083.101-.046.046-.1.083-.055.036-.116.062-.06.025-.125.038-.064.012-.13.012H6q-.066 0-.13-.012-.064-.013-.125-.038-.06-.026-.115-.062-.055-.037-.101-.083-.047-.046-.083-.101-.037-.055-.062-.115-.025-.06-.038-.125-.013-.065-.013-.13 0-.066.013-.13.013-.065.038-.125.025-.061.062-.116.036-.054.083-.1.046-.047.1-.084.055-.036.116-.061.06-.025.125-.038Q5.934 4.5 6 4.5zM6 7.333h4q.066 0 .13.013t.125.038q.06.025.115.062.055.036.101.083.047.046.083.1.037.055.062.116.025.06.038.125.013.064.013.13t-.013.13q-.013.064-.038.125-.025.06-.062.115-.036.055-.083.101-.046.047-.1.083-.055.037-.116.062-.06.025-.125.038-.064.013-.13.013H6q-.066 0-.13-.013t-.125-.038q-.06-.025-.115-.062-.055-.036-.101-.083-.047-.046-.083-.1-.037-.055-.062-.116-.025-.06-.038-.125-.013-.064-.013-.13t.013-.13q.013-.064.038-.125.025-.06.062-.115.036-.055.083-.101.046-.047.1-.083.055-.037.116-.062.06-.025.125-.038.064-.013.13-.013zM6 10h1.333q.066 0 .13.013.065.013.125.038.061.025.116.061.054.037.1.083.047.047.084.101.036.055.061.116.025.06.038.125.013.064.013.13 0 .065-.013.13-.013.064-.038.125-.025.06-.061.115-.037.055-.083.101-.047.046-.101.083-.055.037-.116.062-.06.025-.125.037-.064.013-.13.013H6q-.066 0-.13-.013-.064-.012-.125-.037-.06-.025-.115-.062-.055-.037-.101-.083-.047-.046-.083-.1-.037-.056-.062-.116-.025-.06-.038-.125-.013-.065-.013-.13 0-.066.013-.13.013-.065.038-.126.025-.06.062-.115.036-.054.083-.1.046-.047.1-.084.055-.036.116-.061.06-.025.125-.038Q5.934 10 6 10z" fill="#FFFFFF"/><path d="M15.2 5.4q-.253.337-.4 1.1-.133.697-.133 1.5 0 1.51.596 2.702.03.059.047.122t.022.129q.004.065-.004.13-.008.066-.029.128-.02.062-.053.12-.033.056-.076.106-.043.05-.095.09-.051.04-.11.07-.059.029-.122.046-.064.017-.13.022-.065.005-.13-.004-.065-.008-.127-.028-.063-.021-.12-.054-.057-.032-.106-.075-.05-.043-.09-.095-.04-.052-.07-.11-.737-1.475-.737-3.299 0-.93.158-1.75.205-1.067.642-1.65.04-.053.089-.096.049-.044.105-.078.056-.033.118-.055.062-.022.127-.031.065-.01.13-.006.066.004.13.02t.123.045q.06.028.112.068.052.04.096.088.044.049.077.105.034.057.056.119.021.062.03.127.01.065.006.13-.003.066-.02.13-.016.063-.044.122-.029.06-.068.112z" fill="#367FFD"/></g></g><defs><rect id="a" x="0" y="0" width="16" height="16" rx="0" ry="0"/></defs></svg>