<svg xmlns="http://www.w3.org/2000/svg" xmlns:xlink="http://www.w3.org/1999/xlink" width="16" height="16" fill="none"><g><mask id="b" fill="#fff"><use xlink:href="#a"/></mask><g mask="url(#b)"><path fill-rule="evenodd" d="M3 14h10c.55 0 1-.45 1-1V3c0-.55-.45-1-1-1H3c-.55 0-1 .45-1 1v10c0 .55.45 1 1 1z" fill="#D3D8E0"/><path d="M3 13.333h10c.184 0 .333-.149.333-.333V3A.333.333 0 0013 2.667H3A.333.333 0 002.667 3v10c0 .184.149.333.333.333zm0 1.334c-.92 0-1.667-.746-1.667-1.667V3c0-.92.747-1.667 1.667-1.667h10c.92 0 1.667.747 1.667 1.667v10c0 .92-.746 1.667-1.667 1.667H3z" fill="#D3D8E0"/><path d="M4.667 6.333v-1c0-.368.298-.666.666-.666h5.334c.368 0 .666.298.666.666v1q0 .066-.013.13-.012.065-.037.125-.026.061-.062.116-.037.054-.083.1-.046.047-.101.084-.055.036-.115.061-.061.025-.125.038-.065.013-.13.013-.066 0-.13-.013-.065-.013-.126-.038-.06-.025-.115-.061-.054-.037-.1-.083-.047-.047-.084-.101-.036-.055-.061-.116-.026-.06-.038-.125Q10 6.4 10 6.333v-1h.667V6H5.333v-.667H6v1q0 .066-.013.13-.013.065-.038.125-.025.061-.061.116-.037.054-.083.1-.047.047-.101.084-.055.036-.116.061-.06.025-.125.038Q5.4 7 5.333 7q-.065 0-.13-.013-.064-.013-.125-.038-.06-.025-.115-.061-.055-.037-.101-.083-.047-.047-.083-.101-.037-.055-.062-.116-.025-.06-.038-.125-.012-.064-.012-.13zM7.333 10.667h1.334q.065 0 .13.013.064.012.125.037.06.025.115.062.055.037.101.083.046.046.083.101.036.055.062.115.025.06.037.125.013.065.013.13 0 .066-.013.13-.012.065-.037.126-.026.06-.062.115-.037.054-.083.1-.046.047-.101.084-.055.036-.115.061-.061.025-.125.038-.065.013-.13.013H7.333q-.065 0-.13-.013-.064-.013-.125-.038-.06-.025-.115-.061-.055-.037-.101-.083-.047-.047-.083-.101-.037-.055-.062-.116-.025-.06-.038-.125-.012-.064-.012-.13 0-.065.012-.13.013-.064.038-.125.025-.06.062-.115.036-.055.083-.101.046-.046.1-.083.055-.037.116-.062.06-.025.125-.037.065-.013.13-.013z" fill="#647587"/><path d="M8.667 6v5.333q0 .066-.013.13-.013.065-.038.126-.025.06-.062.115-.036.054-.083.1-.046.047-.1.084-.055.036-.116.061-.06.025-.125.038Q8.066 12 8 12t-.13-.013q-.064-.013-.125-.038-.06-.025-.115-.061-.055-.037-.101-.083-.047-.047-.083-.101-.037-.055-.062-.116-.025-.06-.038-.125-.013-.064-.013-.13V6q0-.066.013-.13t.038-.125q.025-.06.062-.115.036-.055.083-.101.046-.047.1-.083.055-.037.116-.062.06-.025.125-.038.064-.013.13-.013t.13.013q.064.013.125.038.06.025.115.062.055.036.101.083.047.046.083.1.037.055.062.116.025.06.038.125.013.064.013.13z" fill="#647587"/></g></g><defs><rect id="a" x="0" y="0" width="16" height="16" rx="0" ry="0"/></defs></svg>