<svg xmlns="http://www.w3.org/2000/svg" xmlns:xlink="http://www.w3.org/1999/xlink" width="16" height="16" fill="none"><g><mask id="b" fill="#fff"><use xlink:href="#a"/></mask><g mask="url(#b)"><path fill-rule="evenodd" d="M8 14.667A6.667 6.667 0 108 1.333a6.667 6.667 0 000 13.334z" fill="#367FFD"/><path d="M8 14A6 6 0 108 2a6 6 0 000 12zm0 1.333A7.333 7.333 0 118 .667a7.333 7.333 0 010 14.666z" fill="#367FFD"/><path d="M5.333 7h5.334q.098 0 .195.02.096.018.187.056.091.038.173.093.082.054.152.124.07.07.124.151.055.082.093.173.037.091.056.188.02.097.02.195t-.02.195q-.019.097-.056.188-.038.09-.093.173-.055.081-.124.151-.07.07-.152.124-.082.055-.173.093-.09.038-.187.057-.097.019-.195.019H5.333q-.098 0-.195-.02-.096-.018-.187-.056-.091-.038-.173-.093-.082-.054-.152-.124-.07-.07-.124-.151-.055-.082-.093-.173-.037-.091-.057-.188-.019-.097-.019-.195t.02-.195q.019-.097.056-.188.038-.09.093-.173.054-.081.124-.151.07-.07.152-.124.082-.055.173-.093.09-.038.187-.057Q5.235 7 5.333 7z" fill="#FFFFFF"/></g></g><defs><rect id="a" x="0" y="0" width="16" height="16" rx="0" ry="0"/></defs></svg>