<svg xmlns="http://www.w3.org/2000/svg" xmlns:xlink="http://www.w3.org/1999/xlink" width="16" height="16" fill="none"><g><mask id="b" fill="#fff"><use xlink:href="#a"/></mask><g mask="url(#b)"><path fill-rule="evenodd" d="M12 1.333H4a2.667 2.667 0 100 5.334h8a2.667 2.667 0 100-5.334z" fill="#367FFD"/><path d="M12 2H4a2 2 0 000 4h8a2 2 0 100-4zm0-1.333a3.333 3.333 0 110 6.666H4A3.333 3.333 0 014 .667h8z" fill="#367FFD"/><path fill-rule="evenodd" d="M12 9.333H4a2.667 2.667 0 100 5.334h8a2.667 2.667 0 100-5.334z" fill="#367FFD"/><path d="M12 10H4a2 2 0 100 4h8a2 2 0 100-4zm0-1.333a3.333 3.333 0 110 6.666H4a3.333 3.333 0 010-6.666h8z" fill="#367FFD"/><path fill-rule="evenodd" d="M12 4.667a.667.667 0 100-1.334.667.667 0 000 1.334z" fill="#FFFFFF"/><path d="M12 4zm0 1.333a1.333 1.333 0 110-2.666 1.333 1.333 0 010 2.666z" fill="#FFFFFF"/><path fill-rule="evenodd" d="M4 12.667a.667.667 0 100-1.334.667.667 0 000 1.334z" fill="#FFFFFF"/><path d="M4 12zm0 1.333a1.333 1.333 0 110-2.666 1.333 1.333 0 010 2.666z" fill="#FFFFFF"/></g></g><defs><rect id="a" x="0" y="0" width="16" height="16" rx="0" ry="0"/></defs></svg>