<svg xmlns="http://www.w3.org/2000/svg" xmlns:xlink="http://www.w3.org/1999/xlink" width="16" height="16" fill="none"><g><mask id="b" fill="#fff"><use xlink:href="#a"/></mask><g mask="url(#b)"><path fill-rule="evenodd" d="M10.333 1.333h-5L3.333 9H6l-1.333 5.667 8.666-9.334h-4l1-4z" fill="#367FFD"/><path d="M10.333 2h-5v-.667l.645.169-2 7.666L3.333 9v-.667H6c.43 0 .747.401.649.82l-1.333 5.666-.65-.152-.488-.454 8.667-9.333.488.453V6h-4a.667.667 0 01-.647-.828l1-4 .647.161V2zm0-1.333c.434 0 .752.407.647.828l-1 4-.647-.162v-.666h4c.582 0 .885.693.489 1.12L5.155 15.12c-.466.502-1.294.06-1.137-.606L5.35 8.847 6 9v.667H3.333a.667.667 0 01-.645-.835l2-7.667a.667.667 0 01.645-.498h5z" fill="#367FFD"/><path d="M7.647 3.828L6.98 6.495q-.016.064-.044.123-.028.06-.067.112-.04.053-.088.097-.048.044-.105.078-.056.034-.118.056-.062.022-.127.032-.065.01-.13.006-.066-.003-.13-.019-.063-.016-.123-.044-.059-.028-.112-.067-.052-.04-.097-.088-.044-.048-.077-.105-.034-.056-.056-.118-.022-.062-.032-.127-.01-.064-.007-.13.004-.066.02-.13l.666-2.666q.016-.064.044-.123.028-.06.067-.112.04-.053.088-.097.049-.044.105-.078.056-.034.118-.056.062-.022.127-.032.065-.01.13-.006.066.003.13.019.063.016.123.044.06.028.112.067.053.04.097.088.044.048.078.105.033.056.056.118.022.062.031.127.01.064.007.13t-.02.13z" fill="#FFFFFF"/></g></g><defs><rect id="a" x="0" y="0" width="16" height="16" rx="0" ry="0"/></defs></svg>