<svg xmlns="http://www.w3.org/2000/svg" xmlns:xlink="http://www.w3.org/1999/xlink" width="16" height="16" fill="none"><g><mask id="b" fill="#fff"><use xlink:href="#a"/></mask><g mask="url(#b)" fill-rule="evenodd"><path d="M8.6 8h5.2c.66 0 1.2-.54 1.2-1.2V2.2c0-.66-.54-1.2-1.2-1.2H9.2C8.54 1 8 1.54 8 2.2v5.2c0 .33.27.6.6.6z" fill="#337EFF"/><path d="M14 9H7.5c-.28 0-.5-.22-.5-.5V2c0-.55-.45-1-1-1H2c-.55 0-1 .45-1 1v12c0 .55.45 1 1 1h12c.55 0 1-.45 1-1v-4c0-.55-.45-1-1-1z" fill="#337EFF"/><path d="M10.967 3.967v-.934c0-.293.24-.533.533-.533.293 0 .533.24.533.533v.934h.934c.293 0 .533.24.533.533 0 .293-.24.533-.533.533h-.934v.934c0 .293-.24.533-.533.533a.535.535 0 01-.533-.533v-.934h-.934A.535.535 0 019.5 4.5c0-.293.24-.533.533-.533h.934z" fill="#FFFFFF"/></g></g><defs><rect id="a" x="0" y="0" width="16" height="16" rx="0" ry="0"/></defs></svg>