<svg xmlns="http://www.w3.org/2000/svg" xmlns:xlink="http://www.w3.org/1999/xlink" width="32" height="32" viewBox="0 0 32 32" fill="none">
<path d="M29.6 32.0001C31.19 32.0001 32 31.0101 32 29C32 23.49 32 3.00001 32 3.00001C32 1.34 30.93 0 29.6 0L2.4 0C1.07 0 0 1.34 0 3.00001L0 29C0 30.6601 1.07 32.0001 2.4 32.0001C2.4 32.0001 28.01 32.0001 29.6 32.0001Z"   fill="#D3D8E0" >
</path>
<path d="M21.9055 19.7133C21.8867 19.6864 20.0429 17.1223 20.0429 15.2221C20.0429 12.5908 18.8522 11.2416 17.5003 10.739L17.5003 10.4997C17.5003 9.67193 16.8257 9 16.0005 9C15.1754 9 14.5008 9.67462 14.5008 10.4997L14.5008 10.739C13.1489 11.2416 11.9582 12.5908 11.9582 15.2221C11.9582 17.1169 10.1144 19.6783 10.0956 19.7052C10.0123 19.8235 9.98005 19.9686 10.0123 20.111C10.0446 20.2508 10.1359 20.3717 10.2623 20.4389C10.351 20.4873 11.9394 21.334 13.9095 21.7586C14.2428 22.7961 15.0652 23.4976 15.9979 23.4976C16.9305 23.4976 17.7529 22.7961 18.0862 21.7586C20.0563 21.334 21.6448 20.4927 21.7335 20.447C21.8625 20.3771 21.9512 20.2589 21.9861 20.1191C22.021 19.9793 21.9915 19.8315 21.9055 19.7133ZM15.5006 10.4997C15.5006 10.2256 15.7264 9.99984 16.0005 9.99984C16.2747 9.99984 16.5005 10.2256 16.5005 10.4997L16.5005 10.5132C16.3876 10.5051 16.2774 10.4997 16.1672 10.4997L15.8339 10.4997C15.7237 10.4997 15.6135 10.5051 15.5006 10.5132L15.5006 10.4997ZM16.0005 22.5004C15.6511 22.5004 15.3259 22.2908 15.0948 21.9494C15.3958 21.9817 15.6968 22.0005 16.0005 22.0005C16.3043 22.0005 16.608 21.979 16.9063 21.9494C16.6752 22.2908 16.35 22.5004 16.0005 22.5004Z"   fill="#647587" >
</path>
</svg>
