<svg xmlns="http://www.w3.org/2000/svg" xmlns:xlink="http://www.w3.org/1999/xlink" width="32" height="32" viewBox="0 0 32 32" fill="none">
<path d="M29.6 32.0001C31.19 32.0001 32 31.0101 32 29C32 23.49 32 3.00001 32 3.00001C32 1.34 30.93 0 29.6 0L2.4 0C1.07 0 0 1.34 0 3.00001L0 29C0 30.6601 1.07 32.0001 2.4 32.0001C2.4 32.0001 28.01 32.0001 29.6 32.0001Z"   fill="#337EFF" >
</path>
<path d="M23.833 15.906C22.3332 12.9798 19.3642 11 15.9646 11C12.565 11 9.59512 12.9812 8.09622 15.9062C8.09229 15.914 8.08847 15.9219 8.08476 15.9298C8.08105 15.9377 8.07746 15.9456 8.07399 15.9536C8.07051 15.9616 8.06716 15.9697 8.06392 15.9778C8.06068 15.9859 8.05756 15.994 8.05456 16.0022C8.05156 16.0104 8.04868 16.0187 8.04592 16.0269C8.04316 16.0352 8.04053 16.0435 8.03801 16.0519C8.03549 16.0602 8.0331 16.0686 8.03083 16.077C8.02856 16.0855 8.02641 16.0939 8.02439 16.1024C8.02237 16.1109 8.02047 16.1194 8.01869 16.1279C8.01692 16.1365 8.01527 16.1451 8.01375 16.1537C8.01222 16.1622 8.01083 16.1709 8.00955 16.1795C8.00828 16.1881 8.00714 16.1968 8.00612 16.2054C8.0051 16.2141 8.00421 16.2228 8.00344 16.2315C8.00268 16.2402 8.00204 16.2489 8.00153 16.2576C8.00102 16.2663 8.00064 16.275 8.00038 16.2837C8.00013 16.2924 8 16.3011 8 16.3099C8 16.3186 8.00013 16.3273 8.00038 16.336C8.00064 16.3448 8.00102 16.3535 8.00153 16.3622C8.00204 16.3709 8.00268 16.3796 8.00344 16.3883C8.00421 16.397 8.0051 16.4057 8.00612 16.4143C8.00714 16.423 8.00828 16.4316 8.00955 16.4403C8.01083 16.4489 8.01222 16.4575 8.01375 16.4661C8.01527 16.4747 8.01692 16.4833 8.01869 16.4918C8.02047 16.5003 8.02237 16.5089 8.02439 16.5173C8.02641 16.5258 8.02856 16.5343 8.03083 16.5427C8.0331 16.5511 8.03549 16.5595 8.03801 16.5679C8.04053 16.5762 8.04316 16.5845 8.04592 16.5928C8.04868 16.6011 8.05156 16.6093 8.05456 16.6175C8.05756 16.6257 8.06068 16.6339 8.06392 16.642C8.06716 16.6501 8.07051 16.6581 8.07399 16.6661C8.07746 16.6741 8.08105 16.6821 8.08476 16.69C8.08847 16.6979 8.09229 16.7057 8.09622 16.7135C9.59595 19.6397 12.565 21.6195 15.9646 21.6195C19.3642 21.6195 22.3341 19.6383 23.833 16.7132C23.837 16.7054 23.8407 16.6976 23.8444 16.6897C23.8482 16.6818 23.8518 16.6739 23.8552 16.6658C23.8587 16.6578 23.862 16.6498 23.8653 16.6417C23.8685 16.6336 23.8717 16.6254 23.8746 16.6172C23.8776 16.609 23.8805 16.6008 23.8833 16.5925C23.8861 16.5843 23.8887 16.576 23.8912 16.5676C23.8937 16.5592 23.896 16.5508 23.8984 16.5424C23.9007 16.534 23.9028 16.5256 23.9049 16.5171C23.9068 16.5086 23.9087 16.5001 23.9105 16.4915C23.9123 16.483 23.9139 16.4744 23.9154 16.4658C23.9169 16.4572 23.9184 16.4486 23.9197 16.44C23.9209 16.4314 23.9222 16.4227 23.9231 16.414C23.9241 16.4054 23.9251 16.3967 23.9257 16.388C23.9264 16.3793 23.9271 16.3706 23.9277 16.3619C23.9281 16.3532 23.9285 16.3445 23.9288 16.3358C23.9291 16.327 23.9292 16.3183 23.9292 16.3096C23.9292 16.3009 23.9291 16.2921 23.9288 16.2834C23.9285 16.2747 23.9281 16.266 23.9277 16.2573C23.9271 16.2486 23.9264 16.2399 23.9257 16.2312C23.9251 16.2225 23.9241 16.2138 23.9231 16.2051C23.9222 16.1965 23.9209 16.1878 23.9197 16.1792C23.9184 16.1706 23.9169 16.162 23.9154 16.1534C23.9139 16.1448 23.9123 16.1362 23.9105 16.1277C23.9087 16.1191 23.9068 16.1106 23.9049 16.1021C23.9028 16.0936 23.9007 16.0852 23.8984 16.0768C23.896 16.0683 23.8937 16.06 23.8912 16.0516C23.8887 16.0432 23.8861 16.0349 23.8833 16.0266C23.8805 16.0184 23.8776 16.0101 23.8746 16.0019C23.8717 15.9937 23.8685 15.9856 23.8653 15.9775C23.862 15.9694 23.8587 15.9614 23.8552 15.9533C23.8518 15.9453 23.8482 15.9374 23.8444 15.9295C23.8407 15.9216 23.837 15.9138 23.833 15.906ZM15.9646 20.292C15.8994 20.292 15.8343 20.2904 15.7692 20.2872C15.7041 20.284 15.6391 20.2792 15.5743 20.2729C15.5094 20.2665 15.4447 20.2585 15.3803 20.2489C15.3158 20.2394 15.2516 20.2282 15.1877 20.2155C15.1238 20.2028 15.0602 20.1885 14.997 20.1727C14.9338 20.1569 14.871 20.1395 14.8086 20.1206C14.7462 20.1016 14.6843 20.0812 14.623 20.0592C14.5616 20.0373 14.5008 20.0138 14.4406 19.9889C14.3804 19.964 14.3209 19.9376 14.2619 19.9097C14.203 19.8818 14.1448 19.8525 14.0873 19.8218C14.0299 19.7911 13.9732 19.759 13.9173 19.7255C13.8614 19.692 13.8063 19.6571 13.7521 19.6209C13.698 19.5847 13.6447 19.5472 13.5923 19.5084C13.54 19.4695 13.4886 19.4294 13.4382 19.3881C13.3879 19.3468 13.3385 19.3042 13.2902 19.2604C13.2419 19.2167 13.1948 19.1717 13.1487 19.1256C13.1026 19.0796 13.0577 19.0324 13.0139 18.9841C12.9701 18.9358 12.9276 18.8864 12.8862 18.8361C12.8449 18.7857 12.8048 18.7343 12.766 18.682C12.7272 18.6296 12.6896 18.5764 12.6534 18.5222C12.6172 18.468 12.5824 18.413 12.5489 18.3571C12.5153 18.3011 12.4832 18.2445 12.4525 18.187C12.4218 18.1295 12.3925 18.0713 12.3646 18.0124C12.3368 17.9535 12.3104 17.8939 12.2854 17.8337C12.2605 17.7735 12.237 17.7127 12.2151 17.6513C12.1931 17.59 12.1727 17.5281 12.1538 17.4657C12.1348 17.4034 12.1175 17.3406 12.1016 17.2774C12.0858 17.2141 12.0715 17.1506 12.0588 17.0866C12.0461 17.0227 12.035 16.9585 12.0254 16.8941C12.0158 16.8296 12.0079 16.7649 12.0015 16.7001C11.9951 16.6352 11.9903 16.5702 11.9871 16.5051C11.9839 16.44 11.9823 16.3749 11.9823 16.3097C11.9823 16.2446 11.9839 16.1794 11.9871 16.1143C11.9903 16.0492 11.9951 15.9843 12.0015 15.9194C12.0079 15.8545 12.0158 15.7899 12.0254 15.7254C12.035 15.6609 12.0461 15.5968 12.0588 15.5328C12.0715 15.4689 12.0858 15.4053 12.1016 15.3421C12.1175 15.2789 12.1348 15.2161 12.1538 15.1537C12.1727 15.0914 12.1931 15.0295 12.2151 14.9681C12.237 14.9068 12.2605 14.846 12.2854 14.7858C12.3104 14.7256 12.3368 14.666 12.3646 14.6071C12.3925 14.5482 12.4218 14.49 12.4525 14.4325C12.4832 14.375 12.5153 14.3183 12.5489 14.2624C12.5824 14.2065 12.6172 14.1515 12.6534 14.0973C12.6896 14.0431 12.7272 13.9898 12.766 13.9375C12.8048 13.8851 12.8449 13.8338 12.8862 13.7834C12.9276 13.733 12.9701 13.6837 13.0139 13.6354C13.0577 13.5871 13.1026 13.5399 13.1487 13.4938C13.1948 13.4477 13.2419 13.4028 13.2902 13.359C13.3385 13.3153 13.3879 13.2727 13.4382 13.2314C13.4886 13.19 13.54 13.1499 13.5923 13.1111C13.6447 13.0723 13.698 13.0348 13.7521 12.9986C13.8063 12.9624 13.8614 12.9275 13.9173 12.894C13.9732 12.8605 14.0299 12.8284 14.0873 12.7977C14.1448 12.7669 14.203 12.7376 14.2619 12.7098C14.3209 12.6819 14.3804 12.6555 14.4406 12.6306C14.5008 12.6056 14.5616 12.5822 14.623 12.5602C14.6843 12.5383 14.7462 12.5178 14.8086 12.4989C14.871 12.48 14.9338 12.4626 14.997 12.4468C15.0602 12.4309 15.1238 12.4167 15.1877 12.404C15.2516 12.3912 15.3158 12.3801 15.3803 12.3705C15.4447 12.361 15.5094 12.353 15.5743 12.3466C15.6391 12.3402 15.7041 12.3354 15.7692 12.3322C15.8343 12.329 15.8994 12.3274 15.9646 12.3274C16.0298 12.3274 16.0949 12.329 16.16 12.3322C16.2251 12.3354 16.2901 12.3402 16.3549 12.3466C16.4198 12.353 16.4844 12.361 16.5489 12.3705C16.6134 12.3801 16.6776 12.3912 16.7415 12.404C16.8054 12.4167 16.869 12.4309 16.9322 12.4468C16.9954 12.4626 17.0582 12.48 17.1206 12.4989C17.183 12.5178 17.2448 12.5383 17.3062 12.5602C17.3675 12.5822 17.4283 12.6056 17.4886 12.6306C17.5488 12.6555 17.6083 12.6819 17.6672 12.7098C17.7262 12.7376 17.7843 12.7669 17.8418 12.7977C17.8993 12.8284 17.956 12.8605 18.0119 12.894C18.0678 12.9275 18.1228 12.9624 18.177 12.9986C18.2312 13.0348 18.2845 13.0723 18.3368 13.1111C18.3892 13.1499 18.4406 13.19 18.4909 13.2314C18.5413 13.2727 18.5906 13.3153 18.6389 13.359C18.6872 13.4028 18.7344 13.4477 18.7805 13.4938C18.8266 13.5399 18.8715 13.5871 18.9153 13.6354C18.959 13.6837 19.0016 13.733 19.0429 13.7834C19.0843 13.8338 19.1244 13.8851 19.1632 13.9375C19.202 13.9898 19.2395 14.0431 19.2757 14.0973C19.312 14.1515 19.3468 14.2065 19.3803 14.2624C19.4138 14.3183 19.4459 14.375 19.4767 14.4325C19.5074 14.49 19.5367 14.5482 19.5645 14.6071C19.5924 14.666 19.6188 14.7256 19.6437 14.7858C19.6687 14.846 19.6921 14.9068 19.7141 14.9681C19.736 15.0295 19.7565 15.0914 19.7754 15.1537C19.7943 15.2161 19.8117 15.2789 19.8275 15.3421C19.8434 15.4053 19.8577 15.4689 19.8704 15.5328C19.8831 15.5968 19.8942 15.6609 19.9038 15.7254C19.9133 15.7899 19.9213 15.8545 19.9277 15.9194C19.9341 15.9843 19.9389 16.0492 19.9421 16.1143C19.9453 16.1794 19.9469 16.2446 19.9469 16.3097C19.9469 16.3749 19.9454 16.4401 19.9422 16.5052C19.939 16.5703 19.9342 16.6353 19.9279 16.7001C19.9215 16.765 19.9136 16.8297 19.904 16.8942C19.8945 16.9586 19.8834 17.0228 19.8707 17.0868C19.858 17.1507 19.8438 17.2143 19.8279 17.2775C19.8121 17.3408 19.7947 17.4036 19.7758 17.466C19.7569 17.5283 19.7365 17.5902 19.7146 17.6516C19.6926 17.713 19.6692 17.7738 19.6443 17.834C19.6193 17.8942 19.593 17.9538 19.5651 18.0127C19.5372 18.0717 19.5079 18.1299 19.4772 18.1874C19.4465 18.2449 19.4144 18.3016 19.3809 18.3575C19.3474 18.4134 19.3126 18.4684 19.2763 18.5226C19.2401 18.5768 19.2026 18.6301 19.1638 18.6825C19.125 18.7348 19.0849 18.7862 19.0435 18.8366C19.0022 18.887 18.9596 18.9363 18.9159 18.9846C18.8721 19.0329 18.8272 19.0801 18.7811 19.1262C18.735 19.1723 18.6878 19.2172 18.6395 19.261C18.5912 19.3048 18.5418 19.3473 18.4915 19.3887C18.4411 19.43 18.3897 19.4701 18.3373 19.5089C18.285 19.5478 18.2317 19.5853 18.1775 19.6215C18.1233 19.6577 18.0682 19.6925 18.0123 19.7261C17.9564 19.7596 17.8997 19.7917 17.8422 19.8224C17.7847 19.8531 17.7265 19.8824 17.6676 19.9102C17.6087 19.9381 17.5491 19.9645 17.4889 19.9894C17.4286 20.0144 17.3678 20.0378 17.3064 20.0597C17.2451 20.0817 17.1832 20.1021 17.1208 20.121C17.0584 20.1399 16.9956 20.1573 16.9324 20.1731C16.8692 20.1889 16.8056 20.2032 16.7416 20.2158C16.6777 20.2285 16.6135 20.2396 16.549 20.2492C16.4845 20.2587 16.4199 20.2667 16.355 20.273C16.2901 20.2794 16.2251 20.2842 16.16 20.2873C16.0949 20.2905 16.0298 20.2921 15.9646 20.292ZM15.9646 13.6549C15.9054 13.6557 15.8463 13.6585 15.7873 13.6633C15.7284 13.6681 15.6696 13.6749 15.6111 13.6837C15.5525 13.6924 15.4944 13.7032 15.4366 13.7158C15.3788 13.7285 15.3215 13.7431 15.2646 13.7597C15.2762 13.7754 15.2875 13.7915 15.2984 13.8077C15.3093 13.824 15.3198 13.8405 15.33 13.8572C15.3401 13.8739 15.3499 13.8909 15.3593 13.9081C15.3687 13.9252 15.3777 13.9426 15.3864 13.9602C15.395 13.9777 15.4032 13.9955 15.4111 14.0134C15.4189 14.0313 15.4264 14.0494 15.4334 14.0677C15.4405 14.086 15.4471 14.1044 15.4533 14.1229C15.4596 14.1415 15.4654 14.1602 15.4708 14.179C15.4762 14.1978 15.4812 14.2167 15.4857 14.2358C15.4903 14.2548 15.4944 14.2739 15.4981 14.2931C15.5018 14.3124 15.5051 14.3317 15.508 14.351C15.5108 14.3704 15.5132 14.3898 15.5152 14.4093C15.5172 14.4287 15.5188 14.4483 15.5199 14.4678C15.521 14.4873 15.5217 14.5069 15.522 14.5265C15.5223 14.546 15.5221 14.5656 15.5215 14.5852C15.5209 14.6047 15.5198 14.6243 15.5183 14.6438C15.5169 14.6633 15.5149 14.6828 15.5126 14.7022C15.5103 14.7216 15.5075 14.741 15.5043 14.7603C15.5011 14.7796 15.4975 14.7989 15.4934 14.818C15.4894 14.8372 15.4849 14.8562 15.48 14.8752C15.4751 14.8941 15.4698 14.913 15.464 14.9317C15.4583 14.9504 15.4522 14.969 15.4456 14.9874C15.439 15.0058 15.4321 15.0241 15.4247 15.0423C15.4173 15.0604 15.4096 15.0784 15.4014 15.0962C15.3932 15.1139 15.3847 15.1315 15.3757 15.1489C15.3668 15.1664 15.3574 15.1836 15.3477 15.2006C15.338 15.2175 15.3279 15.2343 15.3175 15.2509C15.307 15.2674 15.2962 15.2837 15.285 15.2998C15.2738 15.3158 15.2623 15.3317 15.2504 15.3472C15.2386 15.3628 15.2263 15.3781 15.2138 15.3931C15.2012 15.4081 15.1883 15.4228 15.1751 15.4373C15.1619 15.4517 15.1484 15.4658 15.1345 15.4797C15.1207 15.4935 15.1066 15.507 15.0921 15.5203C15.0777 15.5335 15.0629 15.5463 15.0479 15.5589C15.0329 15.5715 15.0176 15.5837 15.0021 15.5956C14.9865 15.6075 14.9707 15.619 14.9546 15.6302C14.9386 15.6414 14.9223 15.6522 14.9057 15.6626C14.8892 15.6731 14.8724 15.6832 14.8554 15.6929C14.8384 15.7026 14.8212 15.7119 14.8038 15.7209C14.7864 15.7298 14.7688 15.7384 14.751 15.7465C14.7332 15.7547 14.7153 15.7625 14.6971 15.7699C14.679 15.7772 14.6607 15.7842 14.6423 15.7907C14.6238 15.7973 14.6052 15.8034 14.5865 15.8092C14.5678 15.8149 14.549 15.8202 14.53 15.8251C14.5111 15.83 14.492 15.8345 14.4729 15.8386C14.4537 15.8426 14.4345 15.8463 14.4152 15.8494C14.3959 15.8526 14.3765 15.8554 14.3571 15.8578C14.3376 15.8601 14.3182 15.862 14.2986 15.8635C14.2791 15.865 14.2596 15.866 14.24 15.8666C14.2205 15.8672 14.2009 15.8674 14.1813 15.8671C14.1617 15.8669 14.1422 15.8662 14.1226 15.8651C14.1031 15.8639 14.0836 15.8624 14.0641 15.8604C14.0446 15.8584 14.0252 15.856 14.0059 15.8531C13.9865 15.8502 13.9672 15.847 13.948 15.8433C13.9288 15.8395 13.9097 15.8354 13.8906 15.8309C13.8716 15.8263 13.8527 15.8213 13.8338 15.8159C13.815 15.8105 13.7963 15.8047 13.7778 15.7985C13.7592 15.7923 13.7408 15.7856 13.7226 15.7786C13.7043 15.7715 13.6862 15.7641 13.6683 15.7562C13.6503 15.7484 13.6326 15.7402 13.615 15.7315C13.5974 15.7229 13.5801 15.7139 13.5629 15.7045C13.5458 15.695 13.5288 15.6853 13.5121 15.6751C13.4953 15.6649 13.4788 15.6544 13.4626 15.6435C13.4463 15.6326 13.4303 15.6214 13.4145 15.6098C13.4025 15.654 13.3917 15.6985 13.382 15.7433C13.3723 15.788 13.3638 15.833 13.3564 15.8783C13.3491 15.9235 13.3429 15.9688 13.3379 16.0144C13.3329 16.0599 13.3291 16.1056 13.3264 16.1513C13.3238 16.197 13.3223 16.2428 13.3221 16.2886C13.3218 16.3344 13.3227 16.3802 13.3249 16.426C13.327 16.4717 13.3303 16.5174 13.3348 16.563C13.3393 16.6086 13.3449 16.654 13.3518 16.6993C13.3586 16.7446 13.3666 16.7897 13.3758 16.8346C13.385 16.8795 13.3953 16.9241 13.4068 16.9684C13.4183 17.0128 13.4309 17.0568 13.4447 17.1005C13.4585 17.1442 13.4734 17.1875 13.4894 17.2304C13.5055 17.2733 13.5226 17.3158 13.5408 17.3578C13.5591 17.3998 13.5784 17.4413 13.5988 17.4824C13.6192 17.5234 13.6406 17.5638 13.6631 17.6038C13.6856 17.6437 13.7091 17.683 13.7336 17.7217C13.7581 17.7604 13.7836 17.7984 13.8101 17.8358C13.8366 17.8731 13.8641 17.9098 13.8925 17.9457C13.9209 17.9817 13.9502 18.0169 13.9804 18.0513C14.0106 18.0857 14.0417 18.1193 14.0737 18.1521C14.1057 18.1849 14.1385 18.2169 14.1721 18.248C14.2057 18.2791 14.2401 18.3093 14.2753 18.3387C14.3105 18.368 14.3464 18.3964 14.3831 18.4238C14.4198 18.4513 14.4571 18.4778 14.4952 18.5033C14.5332 18.5288 14.5719 18.5533 14.6112 18.5769C14.6505 18.6004 14.6904 18.6229 14.7309 18.6443C14.7714 18.6657 14.8124 18.6861 14.8539 18.7054C14.8955 18.7248 14.9375 18.743 14.98 18.7601C15.0225 18.7773 15.0653 18.7933 15.1087 18.8082C15.152 18.8231 15.1957 18.8369 15.2397 18.8495C15.2837 18.8622 15.3281 18.8737 15.3727 18.884C15.4173 18.8944 15.4622 18.9035 15.5073 18.9115C15.5524 18.9196 15.5977 18.9264 15.6431 18.9321C15.6886 18.9377 15.7341 18.9422 15.7798 18.9455C15.8255 18.9488 15.8713 18.951 15.9171 18.9519C15.9629 18.9528 16.0087 18.9526 16.0545 18.9511C16.1002 18.9497 16.146 18.947 16.1916 18.9432C16.2373 18.9394 16.2828 18.9344 16.3282 18.9282C16.3736 18.922 16.4188 18.9147 16.4638 18.9062C16.5088 18.8976 16.5535 18.8879 16.598 18.8771C16.6426 18.8662 16.6868 18.8543 16.7306 18.8411C16.7745 18.828 16.818 18.8137 16.8612 18.7983C16.9043 18.7829 16.9471 18.7664 16.9893 18.7488C17.0316 18.7312 17.0734 18.7125 17.1147 18.6927C17.1561 18.6729 17.1968 18.652 17.2371 18.6302C17.2773 18.6083 17.317 18.5853 17.356 18.5614C17.3951 18.5374 17.4334 18.5125 17.4712 18.4865C17.509 18.4606 17.546 18.4337 17.5824 18.4058C17.6187 18.3779 17.6543 18.3491 17.6892 18.3194C17.724 18.2897 17.7581 18.2591 17.7914 18.2276C17.8247 18.1961 17.8571 18.1638 17.8887 18.1306C17.9203 18.0974 17.951 18.0635 17.9809 18.0287C18.0107 17.9939 18.0396 17.9584 18.0676 17.9222C18.0956 17.8859 18.1226 17.8489 18.1487 17.8113C18.1748 17.7736 18.1998 17.7353 18.2239 17.6963C18.248 17.6574 18.2711 17.6178 18.2931 17.5776C18.3151 17.5375 18.3361 17.4967 18.356 17.4555C18.376 17.4143 18.3948 17.3725 18.4126 17.3303C18.4303 17.2881 18.447 17.2454 18.4625 17.2023C18.478 17.1592 18.4925 17.1157 18.5058 17.0719C18.519 17.0281 18.5312 16.9839 18.5422 16.9394C18.5532 16.895 18.563 16.8502 18.5717 16.8053C18.5804 16.7603 18.5879 16.7151 18.5942 16.6697C18.6005 16.6244 18.6057 16.5789 18.6096 16.5332C18.6136 16.4876 18.6164 16.4419 18.618 16.3961C18.6196 16.3503 18.62 16.3045 18.6192 16.2587C18.6184 16.2129 18.6165 16.1671 18.6133 16.1214C18.6102 16.0757 18.6059 16.0302 18.6003 15.9847C18.5948 15.9392 18.5881 15.8939 18.5803 15.8488C18.5724 15.8036 18.5634 15.7587 18.5532 15.7141C18.543 15.6694 18.5316 15.6251 18.5191 15.581C18.5066 15.5369 18.493 15.4932 18.4782 15.4498C18.4635 15.4065 18.4476 15.3635 18.4306 15.321C18.4136 15.2784 18.3955 15.2364 18.3763 15.1948C18.3571 15.1532 18.3369 15.1121 18.3156 15.0715C18.2943 15.031 18.2719 14.991 18.2485 14.9516C18.2252 14.9122 18.2008 14.8735 18.1754 14.8353C18.15 14.7972 18.1236 14.7598 18.0963 14.723C18.069 14.6862 18.0407 14.6502 18.0115 14.6149C17.9823 14.5796 17.9522 14.5451 17.9212 14.5114C17.8902 14.4777 17.8583 14.4447 17.8256 14.4127C17.7929 14.3806 17.7594 14.3494 17.7251 14.319C17.6908 14.2887 17.6557 14.2593 17.6198 14.2308C17.584 14.2022 17.5474 14.1747 17.5101 14.148C17.4728 14.1214 17.4349 14.0958 17.3963 14.0711C17.3577 14.0465 17.3184 14.0228 17.2786 14.0002C17.2388 13.9776 17.1984 13.956 17.1574 13.9355C17.1165 13.915 17.075 13.8955 17.033 13.8772C16.9911 13.8588 16.9487 13.8415 16.9058 13.8254C16.8629 13.8092 16.8197 13.7941 16.776 13.7802C16.7324 13.7663 16.6884 13.7535 16.6441 13.7419C16.5998 13.7302 16.5552 13.7197 16.5104 13.7104C16.4655 13.7011 16.4205 13.6929 16.3752 13.6859C16.3299 13.6789 16.2845 13.6731 16.2389 13.6685C16.1933 13.6638 16.1477 13.6604 16.1019 13.6581C16.0562 13.6558 16.0104 13.6548 15.9646 13.6549Z"   fill="#FFFFFF" >
</path>
</svg>
