<svg xmlns="http://www.w3.org/2000/svg" xmlns:xlink="http://www.w3.org/1999/xlink" width="16" height="20" viewBox="0 0 16 20" fill="none">
<path d="M8.00175 2C8.00175 2 10.9405 3.88337 14.9783 5.23851C14.9783 5.23851 15.7541 14.6918 8.02043 19.0001L7.97727 19.0001C0.245863 14.6918 1.02167 5.23851 1.02167 5.23851C5.10263 3.90765 7.99708 2 7.99708 2L8.00175 2L8.00175 2Z"   fill="#D3D8E0" >
</path>
<path    stroke="rgba(100, 117, 135, 1)" stroke-width="1.3333333333333333" stroke-linejoin="round" stroke-linecap="round"  d="M11 10C9.87502 10 9.50004 10 8 10C6.97489 10 5.74998 10 5 10">
</path>
<path    stroke="rgba(100, 117, 135, 1)" stroke-width="1.3333333333333333" stroke-linejoin="round" stroke-linecap="round"  d="M8 13.75C8 12.3438 8 11.875 8 10C8 8.71861 8 7.18747 8 6.25">
</path>
</svg>
