<svg xmlns="http://www.w3.org/2000/svg" xmlns:xlink="http://www.w3.org/1999/xlink" width="16" height="16" fill="none"><g><mask id="b" fill="#fff"><use xlink:href="#a"/></mask><g mask="url(#b)"><path fill-rule="evenodd" d="M7 12.667A5.667 5.667 0 107 1.333a5.667 5.667 0 000 11.334z" fill="#337EFF"/><path d="M7 12A5 5 0 107 2a5 5 0 000 10zm0 1.333A6.333 6.333 0 117 .667a6.333 6.333 0 010 12.666z" fill="#337EFF"/><path d="M8.414 5.252Q7.83 4.667 7 4.667q-.828 0-1.414.585-.047.047-.101.083-.055.037-.115.062-.061.025-.125.038-.065.013-.13.013-.066 0-.13-.013-.065-.013-.126-.038-.06-.025-.115-.062-.054-.036-.1-.083-.047-.046-.084-.1-.036-.055-.061-.116-.026-.06-.038-.125-.013-.064-.013-.13t.013-.13q.012-.064.038-.125.025-.06.061-.115.037-.055.083-.101Q5.62 3.333 7 3.333q1.38 0 2.357.977.047.046.083.1.037.055.062.116.025.06.038.125.012.064.012.13t-.012.13q-.013.064-.038.125-.025.06-.062.115-.036.055-.083.101-.046.047-.1.083-.055.037-.116.062-.06.025-.125.038-.065.013-.13.013-.066 0-.13-.013-.065-.013-.125-.038-.061-.025-.116-.062-.054-.036-.1-.083z" fill="#FFFFFF"/><path d="M11.781 10.367l2.829 2.828q.07.07.124.152.055.082.092.173.038.09.057.187.02.097.02.195 0 .099-.02.195-.019.097-.057.188-.037.091-.092.173-.055.082-.124.151-.07.07-.152.125-.082.055-.173.092-.09.038-.188.057-.096.02-.195.02-.098 0-.195-.02-.096-.02-.187-.057-.091-.037-.173-.092-.082-.055-.152-.125l-2.828-2.828q-.07-.07-.125-.152-.054-.081-.092-.172-.038-.091-.057-.188-.019-.097-.019-.195 0-.099.02-.195.018-.097.056-.188.038-.09.092-.173.055-.082.125-.151.07-.07.151-.125.082-.054.173-.092.091-.038.188-.057.097-.02.195-.02t.195.02q.097.02.188.057.09.038.172.092.082.055.152.125z" fill="#337EFF"/></g></g><defs><rect id="a" x="0" y="0" width="16" height="16" rx="0" ry="0"/></defs></svg>