<svg xmlns="http://www.w3.org/2000/svg" width="32" height="32" fill="none"><g><path fill-rule="evenodd" d="M29.6 32c1.59 0 2.4-.99 2.4-3V3c0-1.66-1.07-3-2.4-3H2.4C1.07 0 0 1.34 0 3v26c0 1.66 1.07 3 2.4 3h27.2z" fill="#337EFF"/><path fill-rule="evenodd" d="M12.532 23.345c0 .693-.358 1.135-.358 1.135-.363.437-.918.623-.918.623-.547.192-1.12.186-1.12.186-.864 0-1.571-.389-1.571-.389a2.091 2.091 0 01-.7-.646c-.19-.274-.059-.624.23-.792.366-.211.838-.042 1.161.231.044.037.071.056.071.056.364.24.871.233.871.233.368 0 .592-.14.592-.14.226-.14.218-.404.218-.404 0-.223-.14-.374-.14-.374-.155-.145-.39-.233-.39-.233-.23-.094-.653-.218-.653-.218-.616-.18-1.011-.358-1.011-.358-.39-.18-.67-.544-.67-.544-.282-.364-.28-.965-.28-.965 0-.65.343-1.073.343-1.073.338-.437.871-.654.871-.654.544-.214 1.167-.218 1.167-.218a3.1 3.1 0 011.447.374c.264.161.448.382.572.58.167.272.028.601-.25.757l-.085.047c-.335.187-.677-.233-1.062-.233-.286-.214-.7-.218-.7-.218-.35 0-.575.171-.575.171-.219.163-.218.42-.218.42 0 .197.155.327.155.327.15.137.374.218.374.218.222.086.638.218.638.218a8.032 8.032 0 011.027.373c.393.184.684.545.684.545.291.368.28.965.28.965zm4.077-.685h-1.206a.63.63 0 000 1.26h1.587a.63.63 0 110 1.26h-1.525a2.155 2.155 0 01-2.155-2.154v-2c0-1.16.94-2.1 2.1-2.1h1.471a.63.63 0 110 1.26h-1.494a.615.615 0 100 1.23h1.222a.622.622 0 010 1.245zm1.665-.622c0-.993.42-1.728.42-1.728.406-.735 1.105-1.12 1.105-1.12.701-.39 1.54-.389 1.54-.389.847 0 1.556.39 1.556.39.697.389 1.105 1.12 1.105 1.12.41.735.404 1.727.404 1.727 0 1-.404 1.742-.404 1.742-.411.736-1.105 1.12-1.105 1.12-.698.39-1.556.39-1.556.39a3.56 3.56 0 01-1.556-.39c-.697-.389-1.09-1.12-1.09-1.12-.406-.736-.42-1.742-.42-1.742zm1.556 0c0 .573.186 1.01.186 1.01.193.437.545.686.545.686.342.235.778.233.778.233.445 0 .794-.233.794-.233.346-.236.544-.685.544-.685.193-.437.187-1.011.187-1.011 0-.565-.187-.996-.187-.996a1.724 1.724 0 00-.544-.67c-.347-.235-.794-.233-.794-.233-.445 0-.778.234-.778.234-.342.235-.545.669-.545.669-.192.432-.186.995-.186.995z" fill="#FFFFFF"/><path d="M14.799 14.784V7.35q0-.059.006-.118.005-.058.017-.116.011-.058.029-.115.017-.056.04-.11.022-.055.05-.107.027-.052.06-.101.033-.05.07-.095.038-.045.08-.087.041-.042.087-.08.046-.037.095-.07.049-.032.1-.06.053-.028.107-.05.055-.023.111-.04.057-.017.115-.029.057-.011.116-.017.059-.006.118-.006t.118.006q.059.006.116.017.058.012.115.029.056.017.11.04.055.022.107.05.052.028.101.06.05.033.095.07.046.038.087.08.042.042.08.087.037.046.07.095.033.049.06.1.028.053.05.107.023.055.04.111.018.057.03.115.01.058.017.116.005.06.005.118v7.433q0 .059-.006.118-.005.058-.017.116-.011.058-.029.115-.017.056-.04.11-.022.055-.05.107-.027.052-.06.101-.033.05-.07.095-.038.046-.08.087-.041.042-.087.08-.046.037-.095.07-.049.033-.1.06-.053.028-.107.05-.055.023-.111.04-.057.018-.115.03-.058.01-.116.016-.059.006-.118.006t-.118-.006q-.059-.005-.116-.017-.058-.011-.115-.029-.056-.017-.11-.04-.055-.022-.107-.05-.052-.027-.101-.06-.05-.033-.095-.07-.046-.038-.087-.08-.042-.041-.08-.087-.037-.046-.07-.095-.033-.049-.06-.1-.028-.053-.05-.107-.023-.055-.04-.111-.018-.057-.03-.115-.01-.058-.016-.116-.006-.06-.006-.118z" fill="#FFFFFF"/><path d="M11.151 10.504l4.001-4.002a1.2 1.2 0 011.698 0l4 4.002q.042.041.08.087.037.045.07.094.033.05.06.101.028.052.05.107.024.054.04.11.018.057.03.115.01.058.017.117.005.058.005.117 0 .06-.006.118-.005.058-.017.116-.011.058-.028.115-.017.056-.04.11-.023.055-.05.107-.028.052-.061.101-.033.05-.07.095-.038.045-.08.087-.041.042-.087.079-.045.037-.094.07-.05.033-.101.06-.052.029-.107.051-.054.023-.11.04-.057.017-.115.028-.058.012-.116.018-.059.005-.118.005t-.118-.005q-.058-.006-.116-.018-.058-.011-.114-.028-.057-.017-.111-.04-.055-.022-.107-.05-.052-.028-.1-.06-.05-.034-.095-.071-.046-.037-.088-.08l-4-4L16 7.35l.849.849-4.001 4q-.042.043-.088.08-.045.037-.094.07-.05.033-.101.06-.052.029-.107.051-.054.023-.11.04-.057.017-.115.028-.058.012-.116.018-.059.005-.118.005t-.118-.005q-.058-.006-.116-.018-.058-.011-.114-.028-.057-.017-.111-.04-.055-.022-.107-.05-.052-.028-.1-.06-.05-.034-.095-.071-.046-.037-.088-.08-.041-.04-.079-.086-.037-.046-.07-.095-.033-.049-.06-.101-.028-.052-.05-.106-.024-.055-.04-.111-.018-.057-.03-.115-.01-.058-.016-.116-.006-.059-.006-.118t.005-.117q.006-.06.018-.117.011-.058.028-.114.017-.057.04-.111.023-.055.05-.107.028-.052.061-.1.033-.05.07-.095.038-.046.08-.087z" fill="#FFFFFF"/></g></svg>