<svg xmlns="http://www.w3.org/2000/svg" xmlns:xlink="http://www.w3.org/1999/xlink" width="32" height="32" viewBox="0 0 32 32" fill="none">
<path d="M2.40061 32.0001C1.07479 32.0001 0 30.6574 0 29.001L0 2.99907C0 1.34273 1.07479 0 2.40061 0L29.5995 0C30.9253 0 32.0001 1.34273 32.0001 2.99907C32.0001 2.99907 32.0001 23.4927 32.0001 29.001C32.0001 31.0068 31.1918 32.0001 29.5995 32.0001C28.0072 32.0001 2.40061 32.0001 2.40061 32.0001Z"   fill="#D3D8E0" >
</path>
<path d="M9.46875 20.1033L12.75 20.1033L12.75 22.517C12.75 22.5228 12.7501 22.5285 12.7503 22.5342C12.7505 22.54 12.7508 22.5457 12.7512 22.5514C12.7516 22.5571 12.7521 22.5628 12.7527 22.5686C12.7533 22.5743 12.7539 22.5799 12.7547 22.5856C12.7555 22.5913 12.7564 22.5969 12.7574 22.6026C12.7584 22.6082 12.7594 22.6139 12.7606 22.6195C12.7618 22.6251 12.7631 22.6306 12.7645 22.6362C12.7658 22.6418 12.7673 22.6473 12.7689 22.6528C12.7704 22.6583 12.7721 22.6638 12.7738 22.6692C12.7756 22.6746 12.7774 22.6801 12.7794 22.6854C12.7813 22.6908 12.7833 22.6961 12.7855 22.7014C12.7876 22.7067 12.7898 22.712 12.7921 22.7172C12.7944 22.7224 12.7968 22.7276 12.7993 22.7327C12.8018 22.7379 12.8044 22.743 12.807 22.748C12.8097 22.753 12.8124 22.758 12.8153 22.7629C12.8181 22.7679 12.821 22.7728 12.824 22.7776C12.827 22.7824 12.8301 22.7872 12.8333 22.7919C12.8364 22.7966 12.8397 22.8013 12.843 22.8059C12.8463 22.8105 12.8497 22.815 12.8532 22.8195C12.8567 22.824 12.8603 22.8284 12.8639 22.8327C12.8676 22.837 12.8713 22.8413 12.8751 22.8455C12.8788 22.8497 12.8827 22.8539 12.8866 22.8579C12.8906 22.862 12.8946 22.866 12.8986 22.8699C12.9027 22.8738 12.9068 22.8776 12.911 22.8814C12.9152 22.8852 12.9195 22.8889 12.9238 22.8925C12.9281 22.8961 12.9325 22.8996 12.937 22.903C12.9414 22.9065 12.9459 22.9099 12.9505 22.9131C12.955 22.9164 12.9597 22.9196 12.9644 22.9227C12.969 22.9258 12.9738 22.9288 12.9785 22.9318C12.9833 22.9347 12.9882 22.9376 12.993 22.9403C12.9979 22.9431 13.0028 22.9458 13.0078 22.9484C13.0128 22.9509 13.0178 22.9534 13.0228 22.9558C13.0279 22.9582 13.033 22.9605 13.0381 22.9627C13.0433 22.9649 13.0485 22.9671 13.0537 22.9691C13.0589 22.9711 13.0641 22.973 13.0694 22.9748C13.0747 22.9767 13.08 22.9784 13.0853 22.98C13.0906 22.9817 13.096 22.9832 13.1014 22.9846C13.1068 22.9861 13.1122 22.9874 13.1176 22.9886C13.1231 22.9899 13.1285 22.991 13.134 22.992C13.1395 22.9931 13.145 22.994 13.1505 22.9949C13.156 22.9957 13.1615 22.9964 13.1671 22.9971C13.1726 22.9977 13.1781 22.9982 13.1837 22.9987C13.1892 22.9991 13.1948 22.9994 13.2004 22.9996C13.2059 22.9999 13.2115 23 13.2171 23C13.2226 23 13.2282 22.9999 13.2337 22.9998C13.2393 22.9996 13.2449 22.9993 13.2504 22.9989C13.256 22.9985 13.2615 22.998 13.2671 22.9974C13.2726 22.9968 13.2781 22.9961 13.2836 22.9953C13.2892 22.9946 13.2946 22.9937 13.3001 22.9927C13.3056 22.9917 13.3111 22.9906 13.3165 22.9894C13.322 22.9882 13.3274 22.9869 13.3328 22.9855C13.3382 22.9841 13.3436 22.9826 13.3489 22.981C13.3543 22.9794 13.3596 22.9777 13.3649 22.9759C13.3702 22.9742 13.3754 22.9723 13.3806 22.9703C13.3859 22.9683 13.3911 22.9662 13.3962 22.9641C13.4014 22.9619 13.4065 22.9596 13.4116 22.9573C13.4166 22.9549 13.4216 22.9525 13.4266 22.9499C13.4316 22.9474 13.4366 22.9447 13.4415 22.942C13.4464 22.9393 13.4512 22.9365 13.456 22.9336C13.4608 22.9307 13.4656 22.9277 13.4703 22.9246C13.475 22.9215 13.4796 22.9184 13.4842 22.9151C13.4888 22.9119 13.4933 22.9086 13.4978 22.9051C13.5023 22.9017 13.5067 22.8982 13.511 22.8947C13.5154 22.8911 13.5197 22.8874 13.5239 22.8837L16.6734 20.1033L23.5312 20.1033C23.5389 20.1033 23.5466 20.1031 23.5542 20.1027C23.5619 20.1023 23.5696 20.1017 23.5772 20.101C23.5848 20.1002 23.5924 20.0992 23.6 20.0981C23.6076 20.0969 23.6152 20.0955 23.6227 20.094C23.6302 20.0925 23.6377 20.0907 23.6451 20.0888C23.6525 20.0869 23.66 20.0848 23.6673 20.0825C23.6747 20.0802 23.682 20.0777 23.6892 20.0751C23.6963 20.0724 23.7035 20.0696 23.7107 20.0665C23.7177 20.0635 23.7248 20.0603 23.7316 20.0569C23.7385 20.0536 23.7454 20.05 23.7521 20.0463C23.759 20.0426 23.7656 20.0387 23.7722 20.0346C23.7788 20.0305 23.7853 20.0263 23.7917 20.0219C23.798 20.0175 23.8043 20.013 23.8104 20.0083C23.8166 20.0036 23.8226 19.9987 23.8286 19.9937C23.8346 19.9887 23.8403 19.9835 23.846 19.9782C23.8518 19.9729 23.8573 19.9675 23.8627 19.9619C23.8682 19.9563 23.8734 19.9506 23.8786 19.9447C23.8837 19.9389 23.8888 19.9329 23.8937 19.9268C23.8985 19.9207 23.9032 19.9145 23.9077 19.9081C23.9123 19.9018 23.9168 19.8953 23.921 19.8887C23.9253 19.8822 23.9294 19.8755 23.9333 19.8687C23.9373 19.8619 23.941 19.8551 23.9446 19.8481C23.9483 19.8411 23.9517 19.8341 23.955 19.8269C23.9583 19.8198 23.9613 19.8126 23.9643 19.8053C23.9672 19.798 23.97 19.7906 23.9726 19.7832C23.9751 19.7757 23.9776 19.7682 23.9798 19.7607C23.982 19.7531 23.984 19.7455 23.9859 19.7378C23.9878 19.7302 23.9895 19.7225 23.9911 19.7147C23.9925 19.707 23.9938 19.6992 23.9949 19.6914C23.996 19.6836 23.9971 19.6757 23.9978 19.6679C23.9985 19.66 23.999 19.6521 23.9994 19.6442C23.9999 19.6363 24 19.6284 24 19.6205L24 9.48275C24 9.47485 23.9999 9.46696 23.9994 9.45906C23.999 9.45117 23.9985 9.4433 23.9978 9.43543C23.9971 9.42757 23.996 9.41973 23.9949 9.41192C23.9938 9.4041 23.9925 9.39632 23.9911 9.38857C23.9895 9.38082 23.9878 9.37312 23.9859 9.36545C23.984 9.35779 23.982 9.35018 23.9798 9.34262C23.9776 9.33506 23.9751 9.32756 23.9726 9.32012C23.97 9.31268 23.9672 9.30531 23.9643 9.29801C23.9613 9.29071 23.9583 9.28349 23.955 9.27635C23.9517 9.26921 23.9483 9.26215 23.9446 9.25518C23.941 9.24822 23.9373 9.24134 23.9333 9.23457C23.9294 9.22779 23.9253 9.22112 23.921 9.21455C23.9168 9.20798 23.9123 9.20152 23.9077 9.19518C23.9032 9.18883 23.8985 9.18261 23.8937 9.1765C23.8888 9.17039 23.8837 9.16441 23.8786 9.15856C23.8734 9.1527 23.8682 9.14698 23.8627 9.14139C23.8573 9.13581 23.8518 9.13036 23.846 9.12506C23.8403 9.11975 23.8346 9.11459 23.8286 9.10958C23.8226 9.10457 23.8166 9.09971 23.8104 9.095C23.8043 9.0903 23.798 9.08575 23.7917 9.08136C23.7853 9.07697 23.7788 9.07274 23.7722 9.06868C23.7656 9.06462 23.759 9.06073 23.7521 9.057C23.7454 9.05328 23.7385 9.04973 23.7316 9.04635C23.7248 9.04297 23.7177 9.03977 23.7107 9.03675C23.7035 9.03372 23.6963 9.03088 23.6892 9.02822C23.682 9.02556 23.6747 9.02308 23.6673 9.02079C23.66 9.01849 23.6525 9.01639 23.6451 9.01447C23.6377 9.01255 23.6302 9.01082 23.6227 9.00928C23.6152 9.00773 23.6076 9.00638 23.6 9.00523C23.5924 9.00407 23.5848 9.0031 23.5772 9.00233C23.5696 9.00155 23.5619 9.00097 23.5542 9.00058C23.5466 9.00019 23.5389 9 23.5312 9L9.46875 9C9.46108 9 9.45341 9.00019 9.44575 9.00058C9.43809 9.00097 9.43044 9.00155 9.4228 9.00233C9.41517 9.0031 9.40756 9.00407 9.39997 9.00523C9.39238 9.00638 9.38483 9.00773 9.3773 9.00928C9.36978 9.01082 9.36229 9.01255 9.35485 9.01447C9.34741 9.01639 9.34002 9.01849 9.33268 9.02079C9.32534 9.02308 9.31806 9.02556 9.31083 9.02822C9.30361 9.03088 9.29646 9.03372 9.28937 9.03675C9.28228 9.03977 9.27527 9.04297 9.26833 9.04635C9.2614 9.04973 9.25455 9.05328 9.24778 9.057C9.24102 9.06073 9.23434 9.06462 9.22776 9.06868C9.22118 9.07274 9.21471 9.07697 9.20833 9.08136C9.20195 9.08575 9.19568 9.0903 9.18952 9.095C9.18335 9.09971 9.17731 9.10457 9.17138 9.10958C9.16545 9.11459 9.15964 9.11975 9.15396 9.12506C9.14827 9.13036 9.14272 9.13581 9.13729 9.14139C9.13187 9.14698 9.12658 9.1527 9.12143 9.15856C9.11628 9.16441 9.11127 9.17039 9.1064 9.1765C9.10153 9.18261 9.09682 9.18883 9.09225 9.19518C9.08768 9.20152 9.08326 9.20798 9.079 9.21455C9.07474 9.22112 9.07063 9.22779 9.06669 9.23457C9.06275 9.24134 9.05897 9.24822 9.05535 9.25518C9.05173 9.26215 9.04828 9.26921 9.045 9.27635C9.04173 9.28349 9.03862 9.29071 9.03568 9.29801C9.03275 9.30531 9.02999 9.31268 9.0274 9.32012C9.02482 9.32756 9.02241 9.33506 9.02018 9.34262C9.01796 9.35018 9.01591 9.35779 9.01405 9.36545C9.01218 9.37312 9.0105 9.38082 9.00901 9.38857C9.00751 9.39632 9.0062 9.4041 9.00507 9.41192C9.00395 9.41973 9.00301 9.42757 9.00226 9.43543C9.0015 9.4433 9.00094 9.45117 9.00056 9.45906C9.00019 9.46696 9 9.47485 9 9.48275L9 19.6205C9 19.6284 9.00019 19.6363 9.00056 19.6442C9.00094 19.6521 9.0015 19.66 9.00226 19.6679C9.00301 19.6757 9.00395 19.6836 9.00507 19.6914C9.0062 19.6992 9.00751 19.707 9.00901 19.7147C9.0105 19.7225 9.01218 19.7302 9.01405 19.7378C9.01591 19.7455 9.01796 19.7531 9.02018 19.7607C9.02241 19.7682 9.02482 19.7757 9.0274 19.7832C9.02999 19.7906 9.03275 19.798 9.03568 19.8053C9.03862 19.8126 9.04173 19.8198 9.045 19.8269C9.04828 19.8341 9.05173 19.8411 9.05535 19.8481C9.05897 19.8551 9.06275 19.8619 9.06669 19.8687C9.07063 19.8755 9.07474 19.8822 9.079 19.8887C9.08326 19.8953 9.08768 19.9018 9.09225 19.9081C9.09682 19.9145 9.10153 19.9207 9.1064 19.9268C9.11127 19.9329 9.11628 19.9389 9.12143 19.9447C9.12658 19.9506 9.13187 19.9563 9.13729 19.9619C9.14272 19.9675 9.14827 19.9729 9.15396 19.9782C9.15964 19.9835 9.16545 19.9887 9.17138 19.9937C9.17731 19.9987 9.18335 20.0036 9.18952 20.0083C9.19568 20.013 9.20195 20.0175 9.20833 20.0219C9.21471 20.0263 9.22118 20.0305 9.22776 20.0346C9.23434 20.0387 9.24102 20.0426 9.24778 20.0463C9.25455 20.05 9.2614 20.0536 9.26833 20.0569C9.27527 20.0603 9.28228 20.0635 9.28937 20.0665C9.29646 20.0696 9.30361 20.0724 9.31083 20.0751C9.31806 20.0777 9.32534 20.0802 9.33268 20.0825C9.34002 20.0848 9.34741 20.0869 9.35485 20.0888C9.36229 20.0907 9.36978 20.0925 9.3773 20.094C9.38483 20.0955 9.39238 20.0969 9.39997 20.0981C9.40756 20.0992 9.41517 20.1002 9.4228 20.101C9.43044 20.1017 9.43809 20.1023 9.44575 20.1027C9.45341 20.1031 9.46108 20.1033 9.46875 20.1033ZM9.9375 9.9655L23.0625 9.9655L23.0625 19.1378L16.5 19.1378C16.388 19.1378 16.2799 19.1791 16.1948 19.2539L13.6875 21.4673L13.6875 19.6205C13.6875 19.6126 13.6873 19.6047 13.6869 19.5969C13.6866 19.589 13.686 19.5811 13.6852 19.5732C13.6845 19.5654 13.6836 19.5575 13.6824 19.5497C13.6813 19.5419 13.68 19.5341 13.6785 19.5264C13.677 19.5186 13.6753 19.5109 13.6735 19.5032C13.6716 19.4956 13.6695 19.488 13.6673 19.4804C13.6651 19.4728 13.6627 19.4653 13.6601 19.4579C13.6575 19.4505 13.6548 19.4431 13.6518 19.4358C13.6489 19.4285 13.6458 19.4213 13.6425 19.4141C13.6392 19.407 13.6358 19.3999 13.6321 19.393C13.6285 19.386 13.6247 19.3791 13.6208 19.3724C13.6169 19.3656 13.6128 19.3589 13.6085 19.3523C13.6042 19.3458 13.5998 19.3393 13.5953 19.333C13.5907 19.3266 13.586 19.3204 13.5811 19.3143C13.5762 19.3082 13.5712 19.3022 13.5661 19.2963C13.5609 19.2905 13.5556 19.2848 13.5502 19.2792C13.5448 19.2736 13.5392 19.2681 13.5335 19.2628C13.5279 19.2575 13.5221 19.2524 13.5161 19.2474C13.5102 19.2423 13.5041 19.2375 13.498 19.2328C13.4918 19.2281 13.4855 19.2235 13.4792 19.2191C13.4728 19.2148 13.4663 19.2105 13.4597 19.2065C13.4532 19.2024 13.4465 19.1985 13.4397 19.1948C13.433 19.1911 13.4261 19.1875 13.4192 19.1841C13.4122 19.1807 13.4052 19.1776 13.3981 19.1745C13.391 19.1715 13.3839 19.1687 13.3767 19.166C13.3694 19.1633 13.3622 19.1609 13.3548 19.1586C13.3475 19.1563 13.3401 19.1542 13.3326 19.1523C13.3252 19.1503 13.3177 19.1486 13.3102 19.1471C13.3027 19.1455 13.2951 19.1442 13.2875 19.143C13.2799 19.1418 13.2723 19.1409 13.2647 19.1401C13.2571 19.1393 13.2494 19.1388 13.2417 19.1384C13.2341 19.138 13.2264 19.1378 13.2188 19.1378L9.9375 19.1378L9.9375 9.9655ZM14.3906 15.0344L16.0312 15.0344L16.0312 16.724C16.0312 16.7319 16.0314 16.7398 16.0318 16.7477C16.0322 16.7556 16.0328 16.7635 16.0335 16.7714C16.0343 16.7792 16.0352 16.787 16.0363 16.7949C16.0374 16.8027 16.0388 16.8105 16.0403 16.8182C16.0418 16.8259 16.0434 16.8337 16.0453 16.8413C16.0472 16.849 16.0492 16.8566 16.0514 16.8642C16.0537 16.8717 16.0561 16.8792 16.0587 16.8867C16.0612 16.8941 16.064 16.9015 16.0669 16.9088C16.0699 16.9161 16.073 16.9233 16.0763 16.9304C16.0795 16.9376 16.083 16.9446 16.0866 16.9516C16.0902 16.9586 16.094 16.9654 16.0979 16.9722C16.1019 16.979 16.106 16.9857 16.1102 16.9922C16.1145 16.9988 16.1189 17.0052 16.1235 17.0116C16.1281 17.0179 16.1328 17.0242 16.1377 17.0303C16.1425 17.0364 16.1475 17.0424 16.1527 17.0482C16.1578 17.0541 16.1631 17.0598 16.1686 17.0654C16.174 17.071 16.1795 17.0764 16.1852 17.0817C16.1909 17.087 16.1967 17.0922 16.2026 17.0972C16.2086 17.1022 16.2146 17.1071 16.2208 17.1118C16.2269 17.1165 16.2332 17.121 16.2396 17.1254C16.246 17.1298 16.2524 17.134 16.259 17.1381C16.2656 17.1422 16.2723 17.146 16.279 17.1498C16.2858 17.1535 16.2927 17.1571 16.2996 17.1604C16.3065 17.1638 16.3135 17.167 16.3206 17.17C16.3277 17.1731 16.3349 17.1759 16.3421 17.1786C16.3493 17.1812 16.3566 17.1837 16.3639 17.186C16.3713 17.1883 16.3787 17.1904 16.3861 17.1923C16.3936 17.1942 16.401 17.196 16.4086 17.1975C16.4161 17.199 16.4236 17.2004 16.4312 17.2016C16.4388 17.2027 16.4464 17.2037 16.454 17.2045C16.4617 17.2052 16.4693 17.2058 16.477 17.2062C16.4847 17.2066 16.4923 17.2068 16.5 17.2068C16.5077 17.2068 16.5153 17.2066 16.523 17.2062C16.5307 17.2058 16.5383 17.2052 16.546 17.2045C16.5536 17.2037 16.5612 17.2027 16.5688 17.2016C16.5764 17.2004 16.5839 17.199 16.5914 17.1975C16.599 17.196 16.6064 17.1942 16.6139 17.1923C16.6213 17.1904 16.6287 17.1883 16.6361 17.186C16.6434 17.1837 16.6507 17.1812 16.6579 17.1786C16.6651 17.1759 16.6723 17.1731 16.6794 17.17C16.6865 17.167 16.6935 17.1638 16.7004 17.1604C16.7073 17.1571 16.7142 17.1535 16.721 17.1498C16.7277 17.146 16.7344 17.1422 16.741 17.1381C16.7476 17.134 16.754 17.1298 16.7604 17.1254C16.7668 17.121 16.7731 17.1165 16.7792 17.1118C16.7854 17.1071 16.7914 17.1022 16.7974 17.0972C16.8033 17.0922 16.8091 17.087 16.8148 17.0817C16.8205 17.0764 16.826 17.071 16.8314 17.0654C16.8369 17.0598 16.8422 17.0541 16.8473 17.0482C16.8525 17.0424 16.8575 17.0364 16.8623 17.0303C16.8672 17.0242 16.8719 17.0179 16.8765 17.0116C16.8811 17.0052 16.8855 16.9988 16.8898 16.9922C16.894 16.9857 16.8981 16.979 16.9021 16.9722C16.906 16.9654 16.9098 16.9586 16.9134 16.9516C16.917 16.9446 16.9205 16.9376 16.9237 16.9304C16.927 16.9233 16.9301 16.9161 16.9331 16.9088C16.936 16.9015 16.9388 16.8941 16.9413 16.8867C16.9439 16.8792 16.9463 16.8717 16.9486 16.8642C16.9508 16.8566 16.9528 16.849 16.9547 16.8413C16.9566 16.8337 16.9582 16.8259 16.9597 16.8182C16.9612 16.8105 16.9626 16.8027 16.9637 16.7949C16.9648 16.787 16.9657 16.7792 16.9665 16.7714C16.9672 16.7635 16.9678 16.7556 16.9682 16.7477C16.9686 16.7398 16.9688 16.7319 16.9688 16.724L16.9688 15.0344L18.6094 15.0344C18.6171 15.0344 18.6247 15.0342 18.6324 15.0338C18.64 15.0334 18.6477 15.0328 18.6553 15.0321C18.663 15.0313 18.6706 15.0303 18.6782 15.0292C18.6857 15.028 18.6933 15.0267 18.7008 15.0251C18.7083 15.0236 18.7158 15.0218 18.7233 15.0199C18.7307 15.018 18.7381 15.0159 18.7454 15.0136C18.7528 15.0113 18.7601 15.0088 18.7673 15.0062C18.7745 15.0035 18.7817 15.0007 18.7888 14.9976C18.7958 14.9946 18.8029 14.9914 18.8098 14.9881C18.8167 14.9847 18.8236 14.9811 18.8303 14.9774C18.8371 14.9737 18.8438 14.9698 18.8504 14.9657C18.8569 14.9617 18.8634 14.9574 18.8698 14.953C18.8762 14.9486 18.8824 14.9441 18.8886 14.9394C18.8948 14.9347 18.9008 14.9298 18.9068 14.9248C18.9127 14.9198 18.9185 14.9146 18.9242 14.9093C18.9299 14.904 18.9354 14.8986 18.9408 14.893C18.9463 14.8874 18.9515 14.8817 18.9567 14.8758C18.9618 14.87 18.9669 14.864 18.9717 14.8579C18.9766 14.8518 18.9813 14.8456 18.9859 14.8392C18.9905 14.8329 18.9949 14.8264 18.9991 14.8198C19.0034 14.8133 19.0075 14.8066 19.0114 14.7998C19.0154 14.793 19.0191 14.7862 19.0228 14.7792C19.0264 14.7722 19.0298 14.7652 19.0331 14.7581C19.0364 14.7509 19.0395 14.7437 19.0424 14.7364C19.0454 14.7291 19.0481 14.7217 19.0507 14.7143C19.0533 14.7068 19.0557 14.6993 19.0579 14.6918C19.0602 14.6842 19.0622 14.6766 19.0641 14.6689C19.0659 14.6613 19.0676 14.6536 19.0691 14.6458C19.0706 14.6381 19.0719 14.6303 19.0731 14.6225C19.0742 14.6147 19.0751 14.6068 19.0759 14.599C19.0766 14.5911 19.0772 14.5832 19.0776 14.5753C19.0779 14.5674 19.0781 14.5595 19.0781 14.5516C19.0781 14.5437 19.0779 14.5358 19.0776 14.528C19.0772 14.5201 19.0766 14.5122 19.0759 14.5043C19.0751 14.4965 19.0742 14.4886 19.0731 14.4808C19.0719 14.473 19.0706 14.4652 19.0691 14.4575C19.0676 14.4497 19.0659 14.442 19.0641 14.4344C19.0622 14.4267 19.0602 14.4191 19.0579 14.4115C19.0557 14.404 19.0533 14.3964 19.0507 14.389C19.0481 14.3816 19.0454 14.3742 19.0424 14.3669C19.0395 14.3596 19.0364 14.3524 19.0331 14.3452C19.0298 14.3381 19.0264 14.331 19.0228 14.3241C19.0191 14.3171 19.0154 14.3102 19.0114 14.3035C19.0075 14.2967 19.0034 14.29 18.9991 14.2834C18.9949 14.2769 18.9905 14.2704 18.9859 14.2641C18.9813 14.2577 18.9766 14.2515 18.9717 14.2454C18.9669 14.2393 18.9618 14.2333 18.9567 14.2274C18.9515 14.2216 18.9463 14.2159 18.9408 14.2103C18.9354 14.2047 18.9299 14.1993 18.9242 14.194C18.9185 14.1886 18.9127 14.1835 18.9068 14.1785C18.9008 14.1735 18.8948 14.1686 18.8886 14.1639C18.8824 14.1592 18.8762 14.1546 18.8698 14.1503C18.8634 14.1459 18.8569 14.1416 18.8504 14.1376C18.8438 14.1335 18.8371 14.1296 18.8303 14.1259C18.8236 14.1222 18.8167 14.1186 18.8098 14.1152C18.8029 14.1119 18.7958 14.1087 18.7888 14.1056C18.7817 14.1026 18.7745 14.0998 18.7673 14.0971C18.7601 14.0944 18.7528 14.092 18.7454 14.0897C18.7381 14.0874 18.7307 14.0853 18.7233 14.0834C18.7158 14.0814 18.7083 14.0797 18.7008 14.0782C18.6933 14.0766 18.6857 14.0753 18.6782 14.0741C18.6706 14.073 18.663 14.072 18.6553 14.0712C18.6477 14.0704 18.64 14.0699 18.6324 14.0695C18.6247 14.0691 18.6171 14.0689 18.6094 14.0689L16.9688 14.0689L16.9688 12.3793C16.9688 12.3714 16.9686 12.3635 16.9682 12.3556C16.9678 12.3477 16.9672 12.3398 16.9665 12.3319C16.9657 12.3241 16.9648 12.3162 16.9637 12.3084C16.9626 12.3006 16.9612 12.2928 16.9597 12.2851C16.9582 12.2773 16.9566 12.2696 16.9547 12.262C16.9528 12.2543 16.9508 12.2467 16.9486 12.2391C16.9463 12.2316 16.9439 12.2241 16.9413 12.2166C16.9388 12.2092 16.936 12.2018 16.9331 12.1945C16.9301 12.1872 16.927 12.18 16.9237 12.1729C16.9205 12.1657 16.917 12.1587 16.9134 12.1517C16.9098 12.1447 16.906 12.1379 16.9021 12.1311C16.8981 12.1243 16.894 12.1176 16.8898 12.1111C16.8855 12.1045 16.8811 12.098 16.8765 12.0917C16.8719 12.0853 16.8672 12.0791 16.8623 12.073C16.8575 12.0669 16.8525 12.0609 16.8473 12.0551C16.8422 12.0492 16.8369 12.0435 16.8314 12.0379C16.826 12.0323 16.8205 12.0269 16.8148 12.0216C16.8091 12.0163 16.8033 12.0111 16.7974 12.0061C16.7914 12.0011 16.7854 11.9962 16.7792 11.9915C16.7731 11.9868 16.7668 11.9823 16.7604 11.9779C16.754 11.9735 16.7476 11.9693 16.741 11.9652C16.7344 11.9611 16.7277 11.9572 16.721 11.9535C16.7142 11.9498 16.7073 11.9462 16.7004 11.9429C16.6935 11.9395 16.6865 11.9363 16.6794 11.9333C16.6723 11.9302 16.6651 11.9274 16.6579 11.9247C16.6507 11.9221 16.6434 11.9196 16.6361 11.9173C16.6287 11.915 16.6213 11.9129 16.6139 11.911C16.6064 11.9091 16.599 11.9073 16.5914 11.9058C16.5839 11.9042 16.5764 11.9029 16.5688 11.9017C16.5612 11.9006 16.5536 11.8996 16.546 11.8988C16.5383 11.8981 16.5307 11.8975 16.523 11.8971C16.5153 11.8967 16.5077 11.8965 16.5 11.8965C16.4923 11.8965 16.4847 11.8967 16.477 11.8971C16.4693 11.8975 16.4617 11.8981 16.454 11.8988C16.4464 11.8996 16.4388 11.9006 16.4312 11.9017C16.4236 11.9029 16.4161 11.9042 16.4086 11.9058C16.401 11.9073 16.3936 11.9091 16.3861 11.911C16.3787 11.9129 16.3713 11.915 16.3639 11.9173C16.3566 11.9196 16.3493 11.9221 16.3421 11.9247C16.3349 11.9274 16.3277 11.9302 16.3206 11.9333C16.3135 11.9363 16.3065 11.9395 16.2996 11.9429C16.2927 11.9462 16.2858 11.9498 16.279 11.9535C16.2723 11.9572 16.2656 11.9611 16.259 11.9652C16.2524 11.9693 16.246 11.9735 16.2396 11.9779C16.2332 11.9823 16.2269 11.9868 16.2208 11.9915C16.2146 11.9962 16.2086 12.0011 16.2026 12.0061C16.1967 12.0111 16.1909 12.0163 16.1852 12.0216C16.1795 12.0269 16.174 12.0323 16.1686 12.0379C16.1631 12.0435 16.1578 12.0492 16.1527 12.0551C16.1475 12.0609 16.1425 12.0669 16.1377 12.073C16.1328 12.0791 16.1281 12.0853 16.1235 12.0917C16.1189 12.098 16.1145 12.1045 16.1102 12.1111C16.106 12.1176 16.1019 12.1243 16.0979 12.1311C16.094 12.1379 16.0902 12.1447 16.0866 12.1517C16.083 12.1587 16.0795 12.1657 16.0763 12.1729C16.073 12.18 16.0699 12.1872 16.0669 12.1945C16.064 12.2018 16.0612 12.2092 16.0587 12.2166C16.0561 12.2241 16.0537 12.2316 16.0514 12.2391C16.0492 12.2467 16.0472 12.2543 16.0453 12.262C16.0434 12.2696 16.0418 12.2773 16.0403 12.2851C16.0388 12.2928 16.0374 12.3006 16.0363 12.3084C16.0352 12.3162 16.0343 12.3241 16.0335 12.3319C16.0328 12.3398 16.0322 12.3477 16.0318 12.3556C16.0314 12.3635 16.0312 12.3714 16.0312 12.3793L16.0312 14.0689L14.3906 14.0689C14.3829 14.0689 14.3753 14.0691 14.3676 14.0695C14.36 14.0699 14.3523 14.0704 14.3447 14.0712C14.337 14.072 14.3294 14.073 14.3219 14.0741C14.3143 14.0753 14.3067 14.0766 14.2992 14.0782C14.2917 14.0797 14.2842 14.0814 14.2767 14.0834C14.2693 14.0853 14.2619 14.0874 14.2546 14.0897C14.2472 14.092 14.2399 14.0944 14.2327 14.0971C14.2255 14.0998 14.2183 14.1026 14.2112 14.1056C14.2042 14.1087 14.1971 14.1119 14.1902 14.1152C14.1833 14.1186 14.1764 14.1222 14.1697 14.1259C14.1629 14.1296 14.1562 14.1335 14.1496 14.1376C14.1431 14.1416 14.1366 14.1459 14.1302 14.1503C14.1238 14.1546 14.1176 14.1592 14.1114 14.1639C14.1052 14.1686 14.0992 14.1735 14.0932 14.1785C14.0873 14.1835 14.0815 14.1886 14.0758 14.194C14.0701 14.1993 14.0646 14.2047 14.0592 14.2103C14.0537 14.2159 14.0485 14.2216 14.0433 14.2274C14.0382 14.2333 14.0331 14.2393 14.0283 14.2454C14.0234 14.2515 14.0187 14.2577 14.0141 14.2641C14.0095 14.2704 14.0051 14.2769 14.0009 14.2834C13.9966 14.29 13.9925 14.2967 13.9886 14.3035C13.9846 14.3102 13.9809 14.3171 13.9772 14.3241C13.9736 14.331 13.9702 14.3381 13.9669 14.3452C13.9636 14.3524 13.9605 14.3596 13.9576 14.3669C13.9546 14.3742 13.9519 14.3816 13.9493 14.389C13.9467 14.3964 13.9443 14.404 13.9421 14.4115C13.9398 14.4191 13.9378 14.4267 13.9359 14.4344C13.9341 14.442 13.9324 14.4497 13.9309 14.4575C13.9294 14.4652 13.9281 14.473 13.9269 14.4808C13.9258 14.4886 13.9249 14.4965 13.9241 14.5043C13.9234 14.5122 13.9228 14.5201 13.9224 14.528C13.9221 14.5358 13.9219 14.5437 13.9219 14.5516C13.9219 14.5595 13.9221 14.5674 13.9224 14.5753C13.9228 14.5832 13.9234 14.5911 13.9241 14.599C13.9249 14.6068 13.9258 14.6147 13.9269 14.6225C13.9281 14.6303 13.9294 14.6381 13.9309 14.6458C13.9324 14.6536 13.9341 14.6613 13.9359 14.6689C13.9378 14.6766 13.9398 14.6842 13.9421 14.6918C13.9443 14.6993 13.9467 14.7068 13.9493 14.7143C13.9519 14.7217 13.9546 14.7291 13.9576 14.7364C13.9605 14.7437 13.9636 14.7509 13.9669 14.7581C13.9702 14.7652 13.9736 14.7722 13.9772 14.7792C13.9809 14.7862 13.9846 14.793 13.9886 14.7998C13.9925 14.8066 13.9966 14.8133 14.0009 14.8198C14.0051 14.8264 14.0095 14.8329 14.0141 14.8392C14.0187 14.8456 14.0234 14.8518 14.0283 14.8579C14.0331 14.864 14.0382 14.87 14.0433 14.8758C14.0485 14.8817 14.0537 14.8874 14.0592 14.893C14.0646 14.8986 14.0701 14.904 14.0758 14.9093C14.0815 14.9146 14.0873 14.9198 14.0932 14.9248C14.0992 14.9298 14.1052 14.9347 14.1114 14.9394C14.1176 14.9441 14.1238 14.9486 14.1302 14.953C14.1366 14.9574 14.1431 14.9617 14.1496 14.9657C14.1562 14.9698 14.1629 14.9737 14.1697 14.9774C14.1764 14.9811 14.1833 14.9847 14.1902 14.9881C14.1971 14.9914 14.2042 14.9946 14.2112 14.9976C14.2183 15.0007 14.2255 15.0035 14.2327 15.0062C14.2399 15.0088 14.2472 15.0113 14.2546 15.0136C14.2619 15.0159 14.2693 15.018 14.2767 15.0199C14.2842 15.0218 14.2917 15.0236 14.2992 15.0251C14.3067 15.0267 14.3143 15.028 14.3219 15.0292C14.3294 15.0303 14.337 15.0313 14.3447 15.0321C14.3523 15.0328 14.36 15.0334 14.3676 15.0338C14.3753 15.0342 14.3829 15.0344 14.3906 15.0344Z"   fill="#647587" >
</path>
</svg>
