<svg xmlns="http://www.w3.org/2000/svg" xmlns:xlink="http://www.w3.org/1999/xlink" width="16" height="16" fill="none"><g><mask id="b" fill="#fff"><use xlink:href="#a"/></mask><g mask="url(#b)"><path fill-rule="evenodd" d="M12.648 6.251a4.667 4.667 0 00-9.293-.032 3.882 3.882 0 00-1.813 1.283A3.888 3.888 0 00.667 10a4 4 0 004 4l.479.009c1.496.031 2.447.03 2.853-.007.398.036 1.321.038 2.77.007l.475-.009a4 4 0 004-4c0-.936-.292-1.768-.875-2.498a3.884 3.884 0 00-1.72-1.25z" fill="#D3D8E0"/><path d="M5.216 7.849l2.312-2.32c.26-.26.68-.261.942-.002l2.377 2.359q.046.046.083.1.037.055.062.115.026.06.039.125.013.065.013.13 0 .066-.012.13-.013.065-.038.126-.025.06-.061.115-.036.055-.082.101-.047.047-.101.084-.055.036-.115.062-.06.025-.125.038-.065.013-.13.013-.066 0-.13-.012-.065-.012-.125-.037-.061-.025-.116-.061-.055-.037-.101-.083L7.53 6.473 8 6l.472.47-2.311 2.32q-.047.046-.101.083-.055.036-.115.062-.061.025-.125.038-.065.013-.13.013-.066 0-.13-.013-.065-.013-.126-.038-.06-.025-.115-.06-.055-.037-.101-.084-.047-.046-.083-.1-.037-.055-.062-.116-.025-.06-.038-.125-.013-.064-.013-.13 0-.065.012-.13.013-.064.038-.125.025-.06.062-.115.036-.055.082-.101z" fill="#647587"/><path d="M7.333 11.692V7.18q0-.065.013-.13.013-.064.038-.125.025-.06.062-.115.036-.055.083-.101.046-.046.1-.083.055-.036.116-.062.06-.025.125-.037.064-.013.13-.013t.13.013q.064.012.125.037.06.026.115.062.055.037.101.083.047.046.083.101.037.055.062.115.025.06.038.125.013.065.013.13v4.513q0 .066-.013.13-.013.065-.038.125t-.062.116q-.036.054-.083.1-.046.047-.1.083-.055.037-.116.062-.06.025-.125.038-.064.013-.13.013t-.13-.013q-.064-.013-.125-.038-.06-.025-.115-.062-.055-.036-.101-.082-.047-.047-.083-.101-.037-.055-.062-.116-.025-.06-.038-.125-.013-.064-.013-.13z" fill="#647587"/></g></g><defs><rect id="a" x="0" y="0" width="16" height="16" rx="0" ry="0"/></defs></svg>