<svg xmlns="http://www.w3.org/2000/svg" xmlns:xlink="http://www.w3.org/1999/xlink" width="36" height="36" fill="none"><g><mask id="b" fill="#fff"><use xlink:href="#a"/></mask><g mask="url(#b)" fill-rule="evenodd"><path d="M6 34.001h24c2.21 0 4-1.79 4-4v-24c0-2.21-1.79-4-4-4H6c-2.21 0-4 1.79-4 4v24c0 2.21 1.79 4 4 4z" fill="#D3D8E0"/><path d="M5.901 34H30.1A3.999 3.999 0 0034 30.001V29l-6.75-8.439a2 2 0 00-2.81-.31l-2.12 1.7c-.76.61-1.85.58-2.58-.07l-6.1-5.42a2 2 0 00-2.94.3L2 28.57V30A3.999 3.999 0 005.901 34zM26.717 6.615a.346.346 0 01-.483.317 4.199 4.199 0 00-2.54-.083 4.132 4.132 0 00-2.119 1.436 4.117 4.117 0 00-.883 2.402c-.02.869.214 1.739.71 2.456a4.142 4.142 0 002.016 1.58 4.093 4.093 0 002.553.09 4.138 4.138 0 002.126-1.428.336.336 0 01.27-.138.346.346 0 01.248.586 4.78 4.78 0 01-2.45 1.643 4.79 4.79 0 01-2.982-.104 4.81 4.81 0 01-2.353-1.842 4.867 4.867 0 01-.828-2.871 4.834 4.834 0 011.028-2.795 4.824 4.824 0 012.47-1.677 4.837 4.837 0 012.982.103c.138.049.235.18.235.325zM25.34 8.67c.308.31.668.437 1.077.384.274-.035.705-.193 1.293-.473.302-.144.528-.245.68-.304.265-.104.503-.169.714-.193.576-.068 1.055.137 1.437.615a.345.345 0 11-.55.415c-.222-.267-.49-.382-.807-.345-.234.028-.626.173-1.177.435-.316.15-.556.258-.72.322a3.372 3.372 0 01-.782.213c-.625.08-1.17-.107-1.635-.562a.344.344 0 01.226-.607c.095 0 .18.039.243.1zm0 1.534c.308.309.668.437 1.077.384.274-.036.705-.194 1.293-.474.302-.143.528-.245.68-.304.265-.104.503-.168.714-.193.576-.067 1.055.138 1.437.615a.345.345 0 11-.55.415c-.222-.266-.49-.382-.807-.345-.234.028-.626.173-1.177.435-.316.151-.556.258-.72.322a3.371 3.371 0 01-.782.213c-.625.08-1.17-.106-1.635-.562a.344.344 0 01.226-.606c.095 0 .18.038.243.1zm0 1.533c.308.309.668.437 1.077.384.274-.036.705-.193 1.293-.473.302-.144.528-.246.68-.305.265-.104.503-.168.714-.193.576-.067 1.055.138 1.437.615a.345.345 0 11-.55.415c-.222-.266-.49-.381-.807-.344-.234.027-.626.172-1.177.435-.316.15-.556.257-.72.321a3.372 3.372 0 01-.782.213c-.625.081-1.17-.106-1.635-.561a.344.344 0 11.469-.507z" fill="#647587"/></g></g><defs><rect id="a" x="0" y="0" width="36" height="36" rx="0" ry="0"/></defs></svg>